<svg width="12" height="10" viewBox="0 0 12 10" fill="none" xmlns="http://www.w3.org/2000/svg">
<path fill-rule="evenodd" clip-rule="evenodd" d="M0.732233 6.73223C1.20107 6.26339 1.83696 6 2.5 6H6C6.66304 6 7.29893 6.26339 7.76777 6.73223C8.23661 7.20107 8.5 7.83696 8.5 8.5V9.5C8.5 9.77614 8.27614 10 8 10C7.72386 10 7.5 9.77614 7.5 9.5V8.5C7.5 8.10217 7.34196 7.72064 7.06066 7.43934C6.77936 7.15804 6.39782 7 6 7H2.5C2.10218 7 1.72064 7.15804 1.43934 7.43934C1.15804 7.72064 1 8.10218 1 8.5V9.5C1 9.77614 0.776142 10 0.5 10C0.223858 10 0 9.77614 0 9.5V8.5C0 7.83696 0.263392 7.20107 0.732233 6.73223Z" fill="#8E9491"/>
<path fill-rule="evenodd" clip-rule="evenodd" d="M4.25 1C3.42157 1 2.75 1.67157 2.75 2.5C2.75 3.32843 3.42157 4 4.25 4C5.07843 4 5.75 3.32843 5.75 2.5C5.75 1.67157 5.07843 1 4.25 1ZM1.75 2.5C1.75 1.11929 2.86929 0 4.25 0C5.63071 0 6.75 1.11929 6.75 2.5C6.75 3.88071 5.63071 5 4.25 5C2.86929 5 1.75 3.88071 1.75 2.5Z" fill="#8E9491"/>
<path fill-rule="evenodd" clip-rule="evenodd" d="M10 2.5C10.2761 2.5 10.5 2.72386 10.5 3V6C10.5 6.27614 10.2761 6.5 10 6.5C9.72386 6.5 9.5 6.27614 9.5 6V3C9.5 2.72386 9.72386 2.5 10 2.5Z" fill="#8E9491"/>
<path fill-rule="evenodd" clip-rule="evenodd" d="M8 4.5C8 4.22386 8.22386 4 8.5 4H11.5C11.7761 4 12 4.22386 12 4.5C12 4.77614 11.7761 5 11.5 5H8.5C8.22386 5 8 4.77614 8 4.5Z" fill="#8E9491"/>
</svg>
