<svg width="10" height="8" viewBox="0 0 10 8" fill="none" xmlns="http://www.w3.org/2000/svg">
<path fill-rule="evenodd" clip-rule="evenodd" d="M0 3C0 2.72386 0.223858 2.5 0.5 2.5H7.5C7.77614 2.5 8 2.72386 8 3C8 3.27614 7.77614 3.5 7.5 3.5H0.5C0.223858 3.5 0 3.27614 0 3Z" fill="#8E9491"/>
<path fill-rule="evenodd" clip-rule="evenodd" d="M0 1C0 0.723858 0.223858 0.5 0.5 0.5H9.5C9.77614 0.5 10 0.723858 10 1C10 1.27614 9.77614 1.5 9.5 1.5H0.5C0.223858 1.5 0 1.27614 0 1Z" fill="#8E9491"/>
<path fill-rule="evenodd" clip-rule="evenodd" d="M0 5C0 4.72386 0.223858 4.5 0.5 4.5H9.5C9.77614 4.5 10 4.72386 10 5C10 5.27614 9.77614 5.5 9.5 5.5H0.5C0.223858 5.5 0 5.27614 0 5Z" fill="#8E9491"/>
<path fill-rule="evenodd" clip-rule="evenodd" d="M0 7C0 6.72386 0.223858 6.5 0.5 6.5H7.5C7.77614 6.5 8 6.72386 8 7C8 7.27614 7.77614 7.5 7.5 7.5H0.5C0.223858 7.5 0 7.27614 0 7Z" fill="#8E9491"/>
</svg>
