<svg width="17" height="19" viewBox="0 0 17 19" fill="none" xmlns="http://www.w3.org/2000/svg">
<path d="M16.311 13.8999C15.8797 14.8577 15.6719 15.2858 15.1172 16.1312C14.3406 17.3124 13.2453 18.7874 11.8922 18.7968C10.6875 18.8077 10.3766 18.0108 8.74064 18.0249C7.10627 18.0327 6.76564 18.8124 5.55939 18.7999C4.2047 18.7874 3.16877 17.4593 2.3922 16.2796C0.220329 12.9718 -0.00935835 9.09365 1.33283 7.03115C2.28283 5.56865 3.78439 4.70928 5.19533 4.70928C6.63283 4.70928 7.53595 5.49834 8.72345 5.49834C9.87658 5.49834 10.5781 4.70772 12.2406 4.70772C13.4969 4.70772 14.825 5.39209 15.775 6.57334C12.6688 8.27646 13.1735 12.7124 16.311 13.8999ZM10.9781 3.3874C11.5828 2.61084 12.0422 1.51553 11.875 0.399902C10.8891 0.46709 9.73595 1.09678 9.06252 1.9124C8.45158 2.65615 7.94533 3.75928 8.1422 4.82647C9.21877 4.86084 10.3328 4.21865 10.9781 3.3874Z" fill="black"/>
</svg>
