<svg width="16" height="14" viewBox="0 0 16 14" fill="none" xmlns="http://www.w3.org/2000/svg">
<path fill-rule="evenodd" clip-rule="evenodd" d="M2 3.66659C2.36819 3.66659 2.66667 3.96506 2.66667 4.33325V12.3333H13.3333V4.33325C13.3333 3.96506 13.6318 3.66659 14 3.66659C14.3682 3.66659 14.6667 3.96506 14.6667 4.33325V12.9999C14.6667 13.3681 14.3682 13.6666 14 13.6666H2C1.63181 13.6666 1.33333 13.3681 1.33333 12.9999V4.33325C1.33333 3.96506 1.63181 3.66659 2 3.66659Z" fill="#565B59"/>
<path fill-rule="evenodd" clip-rule="evenodd" d="M0 0.999919C0 0.631729 0.298477 0.333252 0.666667 0.333252H15.3333C15.7015 0.333252 16 0.631729 16 0.999919V4.33325C16 4.70144 15.7015 4.99992 15.3333 4.99992H0.666667C0.298477 4.99992 0 4.70144 0 4.33325V0.999919ZM1.33333 1.66659V3.66659H14.6667V1.66659H1.33333Z" fill="#565B59"/>
<path fill-rule="evenodd" clip-rule="evenodd" d="M6 6.99992C6 6.63173 6.29848 6.33325 6.66667 6.33325H9.33333C9.70152 6.33325 10 6.63173 10 6.99992C10 7.36811 9.70152 7.66659 9.33333 7.66659H6.66667C6.29848 7.66659 6 7.36811 6 6.99992Z" fill="#565B59"/>
</svg>
