<svg width="16" height="17" viewBox="0 0 16 17" fill="none" xmlns="http://www.w3.org/2000/svg">
<path fill-rule="evenodd" clip-rule="evenodd" d="M1.49012e-08 8.5C1.49012e-08 7.94772 0.447715 7.5 1 7.5H15C15.5523 7.5 16 7.94772 16 8.5C16 9.05229 15.5523 9.5 15 9.5H1C0.447715 9.5 1.49012e-08 9.05229 1.49012e-08 8.5Z" fill="#8E9491"/>
<path fill-rule="evenodd" clip-rule="evenodd" d="M8.70711 0.792893C9.09763 1.18342 9.09763 1.81658 8.70711 2.20711L2.41421 8.5L8.70711 14.7929C9.09763 15.1834 9.09763 15.8166 8.70711 16.2071C8.31658 16.5976 7.68342 16.5976 7.29289 16.2071L0.292893 9.20711C-0.0976311 8.81658 -0.0976311 8.18342 0.292893 7.79289L7.29289 0.792893C7.68342 0.402369 8.31658 0.402369 8.70711 0.792893Z" fill="#8E9491"/>
</svg>
