<svg width="6" height="8" viewBox="0 0 6 8" fill="none" xmlns="http://www.w3.org/2000/svg">
<path fill-rule="evenodd" clip-rule="evenodd" d="M3 0C3.27614 0 3.5 0.223858 3.5 0.5V7.5C3.5 7.77614 3.27614 8 3 8C2.72386 8 2.5 7.77614 2.5 7.5V0.5C2.5 0.223858 2.72386 0 3 0Z" fill="#565B59"/>
<path fill-rule="evenodd" clip-rule="evenodd" d="M0.146447 4.64645C0.341709 4.45118 0.658291 4.45118 0.853553 4.64645L3 6.79289L5.14645 4.64645C5.34171 4.45118 5.65829 4.45118 5.85355 4.64645C6.04882 4.84171 6.04882 5.15829 5.85355 5.35355L3.35355 7.85355C3.15829 8.04882 2.84171 8.04882 2.64645 7.85355L0.146447 5.35355C-0.0488155 5.15829 -0.0488155 4.84171 0.146447 4.64645Z" fill="#565B59"/>
</svg>
