<svg width="40" height="40" viewBox="0 0 40 40" fill="none" xmlns="http://www.w3.org/2000/svg">
<g clip-path="url(#clip0_236_3699)">
<rect width="40" height="40" rx="20" fill="#E3E4E4"/>
<path d="M22.4766 17.4205C22.416 16.8826 22.166 16.4659 21.7266 16.1705C21.2872 15.8712 20.7341 15.7216 20.0675 15.7216C19.5902 15.7216 19.1773 15.7973 18.8288 15.9489C18.4804 16.0966 18.2095 16.3011 18.0163 16.5625C17.8269 16.8201 17.7322 17.1136 17.7322 17.4432C17.7322 17.7197 17.7966 17.9583 17.9254 18.1591C18.058 18.3598 18.2304 18.5284 18.4425 18.6648C18.6584 18.7973 18.8894 18.9091 19.1357 19C19.3819 19.0871 19.6186 19.1591 19.8459 19.2159L20.9822 19.5114C21.3535 19.6023 21.7341 19.7254 22.1243 19.8807C22.5144 20.036 22.8762 20.2405 23.2095 20.4943C23.5429 20.7481 23.8118 21.0625 24.0163 21.4375C24.2247 21.8125 24.3288 22.2614 24.3288 22.7841C24.3288 23.4432 24.1584 24.0284 23.8175 24.5398C23.4804 25.0511 22.9898 25.4545 22.3459 25.75C21.7057 26.0455 20.9311 26.1932 20.022 26.1932C19.1508 26.1932 18.397 26.0549 17.7607 25.7784C17.1243 25.5019 16.6262 25.1098 16.2663 24.6023C15.9065 24.0909 15.7076 23.4848 15.6697 22.7841H17.4311C17.4652 23.2045 17.6016 23.5549 17.8402 23.8352C18.0826 24.1117 18.3913 24.3182 18.7663 24.4545C19.1451 24.5871 19.5599 24.6534 20.0107 24.6534C20.5069 24.6534 20.9482 24.5758 21.3345 24.4205C21.7247 24.2614 22.0315 24.0417 22.255 23.7614C22.4785 23.4773 22.5902 23.1458 22.5902 22.767C22.5902 22.4223 22.4917 22.1402 22.2947 21.9205C22.1016 21.7008 21.8383 21.5189 21.505 21.375C21.1754 21.2311 20.8023 21.1042 20.3857 20.9943L19.0107 20.6193C18.0788 20.3655 17.3402 19.9924 16.7947 19.5C16.2531 19.0076 15.9822 18.3561 15.9822 17.5455C15.9822 16.875 16.1641 16.2898 16.5277 15.7898C16.8913 15.2898 17.3838 14.9015 18.005 14.625C18.6262 14.3447 19.3269 14.2045 20.1072 14.2045C20.8951 14.2045 21.5902 14.3428 22.1925 14.6193C22.7985 14.8958 23.2758 15.2765 23.6243 15.7614C23.9728 16.2424 24.1546 16.7955 24.1697 17.4205H22.4766Z" fill="black"/>
</g>
<defs>
<clipPath id="clip0_236_3699">
<rect width="40" height="40" rx="20" fill="white"/>
</clipPath>
</defs>
</svg>
