<svg width="16" height="16" viewBox="0 0 16 16" fill="none" xmlns="http://www.w3.org/2000/svg">
<path fill-rule="evenodd" clip-rule="evenodd" d="M4.70014 2.03351C5.57531 1.15834 6.76229 0.666672 7.99997 0.666672C9.23765 0.666672 10.4246 1.15834 11.2998 2.03351C12.175 2.90868 12.6666 4.09566 12.6666 5.33334C12.6666 7.56844 13.1447 8.95642 13.5852 9.7641C13.8064 10.1696 14.0218 10.4357 14.1714 10.5936C14.2464 10.6727 14.3053 10.7252 14.3408 10.7548C14.3586 10.7696 14.3705 10.7786 14.3756 10.7825C14.3764 10.7831 14.377 10.7835 14.3775 10.7839C14.6165 10.948 14.7223 11.2483 14.638 11.5265C14.5529 11.8077 14.2937 12 14 12H1.99997C1.70619 12 1.44704 11.8077 1.36191 11.5265C1.27768 11.2483 1.38344 10.948 1.62243 10.7839C1.6229 10.7835 1.62353 10.7831 1.62434 10.7825C1.62947 10.7786 1.64137 10.7696 1.65912 10.7548C1.6946 10.7252 1.75352 10.6727 1.8285 10.5936C1.97812 10.4357 2.19351 10.1696 2.41471 9.7641C2.85526 8.95642 3.3333 7.56844 3.3333 5.33334C3.3333 4.09566 3.82497 2.90868 4.70014 2.03351ZM3.43285 10.6667H12.5671C12.5164 10.5836 12.4654 10.4956 12.4147 10.4026C11.8553 9.37692 11.3333 7.7649 11.3333 5.33334C11.3333 4.44928 10.9821 3.60144 10.357 2.97632C9.73187 2.35119 8.88403 2.00001 7.99997 2.00001C7.11592 2.00001 6.26807 2.35119 5.64295 2.97632C5.01783 3.60144 4.66664 4.44928 4.66664 5.33334C4.66664 7.7649 4.14468 9.37692 3.58523 10.4026C3.5345 10.4956 3.48358 10.5836 3.43285 10.6667Z" fill="#565B59"/>
<path fill-rule="evenodd" clip-rule="evenodd" d="M6.51212 13.4233C6.83061 13.2386 7.23856 13.347 7.4233 13.6655C7.48191 13.7665 7.56602 13.8504 7.66723 13.9087C7.76843 13.967 7.88318 13.9976 7.99997 13.9976C8.11676 13.9976 8.23151 13.967 8.33271 13.9087C8.43392 13.8504 8.51803 13.7665 8.57664 13.6655C8.76138 13.347 9.16933 13.2386 9.48782 13.4233C9.8063 13.6081 9.91472 14.016 9.72997 14.3345C9.55416 14.6376 9.30181 14.8892 8.9982 15.064C8.69458 15.2389 8.35035 15.331 7.99997 15.331C7.64959 15.331 7.30536 15.2389 7.00174 15.064C6.69813 14.8892 6.44578 14.6376 6.26997 14.3345C6.08522 14.016 6.19364 13.6081 6.51212 13.4233Z" fill="#565B59"/>
</svg>
