<svg width="22" height="23" viewBox="0 0 22 23" fill="none" xmlns="http://www.w3.org/2000/svg">
<path fill-rule="evenodd" clip-rule="evenodd" d="M14.663 3.77354C12.8902 2.98364 10.9096 2.78796 9.01657 3.21567C7.12351 3.64338 5.41942 4.67157 4.15845 6.1469C2.89749 7.62223 2.14721 9.46565 2.01951 11.4022C1.89181 13.3388 2.39354 15.2648 3.44987 16.8929C4.50619 18.521 6.06051 19.7641 7.88102 20.4367C9.70153 21.1092 11.6907 21.1753 13.5518 20.625C15.413 20.0748 17.0464 18.9376 18.2084 17.3832C19.3705 15.8287 19.9989 13.9403 20 11.9995V11.0801C20 10.5278 20.4477 10.0801 21 10.0801C21.5523 10.0801 22 10.5278 22 11.0801V12.0007C21.9986 14.3727 21.2305 16.6808 19.8103 18.5807C18.39 20.4806 16.3936 21.8704 14.1189 22.543C11.8442 23.2155 9.41299 23.1348 7.18792 22.3127C4.96285 21.4907 3.06312 19.9714 1.77206 17.9815C0.480993 15.9915 -0.13223 13.6376 0.0238445 11.2706C0.179919 8.9037 1.09693 6.65064 2.63811 4.84746C4.17929 3.04428 6.26206 1.7876 8.57581 1.26484C10.8896 0.742082 13.3103 0.981252 15.477 1.94668C15.9815 2.17146 16.2082 2.76264 15.9834 3.26711C15.7587 3.77158 15.1675 3.99832 14.663 3.77354Z" fill="#218758"/>
<path fill-rule="evenodd" clip-rule="evenodd" d="M21.7068 3.29265C22.0975 3.68298 22.0978 4.31614 21.7075 4.70686L11.7075 14.7169C11.52 14.9046 11.2656 15.01 11.0003 15.0101C10.735 15.0102 10.4805 14.9048 10.2929 14.7172L7.2929 11.7172C6.90237 11.3267 6.90237 10.6935 7.2929 10.303C7.68342 9.91248 8.31659 9.91248 8.70711 10.303L10.9997 12.5955L20.2925 3.29336C20.6829 2.90264 21.316 2.90232 21.7068 3.29265Z" fill="#218758"/>
</svg>
