<svg width="40" height="40" viewBox="0 0 40 40" fill="none" xmlns="http://www.w3.org/2000/svg">
<rect width="40" height="40" rx="8" fill="white"/>
<path fill-rule="evenodd" clip-rule="evenodd" d="M25.8333 11.6667H14.1666C12.7916 11.6667 11.6666 12.7834 11.6666 14.1667V25.8334C11.6666 27.2084 12.7916 28.3334 14.1666 28.3334H25.8333C27.2166 28.3334 28.3333 27.2084 28.3333 25.8334V14.1667C28.3333 12.7834 27.2166 11.6667 25.8333 11.6667ZM16.6666 26.6667H14.1666C13.7083 26.6667 13.3333 26.2917 13.3333 25.8334V14.1667C13.3333 13.7 13.7083 13.3334 14.1666 13.3334H16.6666V26.6667ZM26.6666 25.8334C26.6666 26.2917 26.3 26.6667 25.8333 26.6667H18.3333V13.3334H25.8333C26.3 13.3334 26.6666 13.7 26.6666 14.1667V25.8334Z" fill="#565B59"/>
<path fill-rule="evenodd" clip-rule="evenodd" d="M23.225 22.3563C23.4416 22.5479 23.7916 22.5479 24.0083 22.3563C24.225 22.1563 24.225 21.8396 24.0083 21.6479L22.1833 19.9979L24.0083 18.3563C24.225 18.1563 24.225 17.8396 24.0083 17.6479C23.7916 17.4479 23.4416 17.4479 23.225 17.6479L21 19.6479C20.7833 19.8396 20.7833 20.1563 21 20.3563L23.225 22.3563Z" fill="#565B59"/>
</svg>
