<svg width="128" height="128" viewBox="0 0 128 128" fill="none" xmlns="http://www.w3.org/2000/svg">
<rect width="128" height="128" rx="64" fill="#E9F4EF"/>
<path fill-rule="evenodd" clip-rule="evenodd" d="M71.326 47.5468C67.7805 45.967 63.8193 45.5757 60.0331 46.4311C56.247 47.2865 52.8388 49.3429 50.3169 52.2936C47.795 55.2442 46.2944 58.931 46.039 62.8042C45.7836 66.6773 46.7871 70.5293 48.8997 73.7856C51.0124 77.0418 54.121 79.5279 57.762 80.8731C61.4031 82.2183 65.3814 82.3504 69.1036 81.2499C72.8259 80.1493 76.0927 77.875 78.4168 74.7661C80.7409 71.6572 81.9978 67.8804 82 63.9988V62.16C82 61.0554 82.8954 60.16 84 60.16C85.1046 60.16 86 61.0554 86 62.16V64C85.9973 68.7441 84.4611 73.3614 81.6205 77.1611C78.78 80.9609 74.7872 83.7406 70.2378 85.0857C65.6883 86.4308 60.826 86.2693 56.3758 84.6252C51.9257 82.9811 48.1262 79.9425 45.5441 75.9627C42.962 71.9828 41.7355 67.2749 42.0477 62.541C42.3598 57.8072 44.1939 53.301 47.2762 49.6947C50.3586 46.0883 54.5241 43.575 59.1516 42.5294C63.7791 41.4839 68.6206 41.9623 72.954 43.8931C73.963 44.3427 74.4164 45.525 73.9669 46.534C73.5173 47.5429 72.335 47.9964 71.326 47.5468Z" fill="#218758"/>
<path fill-rule="evenodd" clip-rule="evenodd" d="M85.4135 46.5851C86.195 47.3657 86.1956 48.632 85.4149 49.4135L65.4149 69.4335C65.0399 69.8089 64.5311 70.0198 64.0005 70.02C63.4699 70.0201 62.961 69.8094 62.5858 69.4342L56.5858 63.4342C55.8048 62.6531 55.8048 61.3868 56.5858 60.6058C57.3668 59.8247 58.6332 59.8247 59.4142 60.6058L63.9993 65.1908L82.5851 46.5865C83.3657 45.805 84.6321 45.8044 85.4135 46.5851Z" fill="#218758"/>
</svg>
