<svg width="14" height="16" viewBox="0 0 14 16" fill="none" xmlns="http://www.w3.org/2000/svg">
<path fill-rule="evenodd" clip-rule="evenodd" d="M0.333313 4.00008C0.333313 3.63189 0.63179 3.33341 0.99998 3.33341H13C13.3682 3.33341 13.6666 3.63189 13.6666 4.00008C13.6666 4.36827 13.3682 4.66675 13 4.66675H0.99998C0.63179 4.66675 0.333313 4.36827 0.333313 4.00008Z" fill="#D71616"/>
<path fill-rule="evenodd" clip-rule="evenodd" d="M5.66665 2.00008C5.48984 2.00008 5.32027 2.07032 5.19524 2.19534C5.07022 2.32037 4.99998 2.48994 4.99998 2.66675V4.00008C4.99998 4.36827 4.7015 4.66675 4.33331 4.66675C3.96512 4.66675 3.66665 4.36827 3.66665 4.00008V2.66675C3.66665 2.13631 3.87736 1.62761 4.25243 1.25253C4.62751 0.877462 5.13621 0.666748 5.66665 0.666748H8.33331C8.86375 0.666748 9.37245 0.877462 9.74753 1.25253C10.1226 1.62761 10.3333 2.13631 10.3333 2.66675V4.00008C10.3333 4.36827 10.0348 4.66675 9.66665 4.66675C9.29846 4.66675 8.99998 4.36827 8.99998 4.00008V2.66675C8.99998 2.48994 8.92974 2.32037 8.80472 2.19534C8.67969 2.07032 8.51012 2.00008 8.33331 2.00008H5.66665ZM2.33331 3.33341C2.7015 3.33341 2.99998 3.63189 2.99998 4.00008V13.3334C2.99998 13.5102 3.07022 13.6798 3.19524 13.8048C3.32027 13.9298 3.48984 14.0001 3.66665 14.0001H10.3333C10.5101 14.0001 10.6797 13.9298 10.8047 13.8048C10.9297 13.6798 11 13.5102 11 13.3334V4.00008C11 3.63189 11.2985 3.33341 11.6666 3.33341C12.0348 3.33341 12.3333 3.63189 12.3333 4.00008V13.3334C12.3333 13.8638 12.1226 14.3726 11.7475 14.7476C11.3725 15.1227 10.8637 15.3334 10.3333 15.3334H3.66665C3.13621 15.3334 2.62751 15.1227 2.25243 14.7476C1.87736 14.3726 1.66665 13.8638 1.66665 13.3334V4.00008C1.66665 3.63189 1.96512 3.33341 2.33331 3.33341Z" fill="#D71616"/>
<path fill-rule="evenodd" clip-rule="evenodd" d="M5.66665 6.66675C6.03484 6.66675 6.33331 6.96522 6.33331 7.33341V11.3334C6.33331 11.7016 6.03484 12.0001 5.66665 12.0001C5.29846 12.0001 4.99998 11.7016 4.99998 11.3334V7.33341C4.99998 6.96522 5.29846 6.66675 5.66665 6.66675Z" fill="#D71616"/>
<path fill-rule="evenodd" clip-rule="evenodd" d="M8.33331 6.66675C8.7015 6.66675 8.99998 6.96522 8.99998 7.33341V11.3334C8.99998 11.7016 8.7015 12.0001 8.33331 12.0001C7.96512 12.0001 7.66665 11.7016 7.66665 11.3334V7.33341C7.66665 6.96522 7.96512 6.66675 8.33331 6.66675Z" fill="#D71616"/>
</svg>
