<svg width="16" height="16" viewBox="0 0 16 16" fill="none" xmlns="http://www.w3.org/2000/svg">
<path fill-rule="evenodd" clip-rule="evenodd" d="M10.4698 4.86028C10.731 5.11972 10.7325 5.54183 10.4731 5.80308L4.51473 11.8031C4.38958 11.9291 4.2193 12 4.04169 12C3.86407 12 3.6938 11.9291 3.56864 11.8031L0.86031 9.07581C0.600869 8.81455 0.602339 8.39245 0.863595 8.13301C1.12485 7.87357 1.54696 7.87504 1.8064 8.13629L4.04169 10.3872L9.52698 4.86356C9.78642 4.60231 10.2085 4.60084 10.4698 4.86028Z" fill="#565B59"/>
<path fill-rule="evenodd" clip-rule="evenodd" d="M15.1364 4.86028C15.3977 5.11972 15.3992 5.54183 15.1397 5.80308L9.1814 11.8031C8.92506 12.0612 8.5091 12.0662 8.24667 11.8142L7.205 10.8142C6.93939 10.5593 6.93078 10.1372 7.18576 9.87164C7.44075 9.60603 7.86277 9.59741 8.12838 9.8524L8.69719 10.3985L14.1936 4.86356C14.4531 4.60231 14.8752 4.60084 15.1364 4.86028Z" fill="#565B59"/>
</svg>
