<svg width="16" height="15" viewBox="0 0 16 15" fill="none" xmlns="http://www.w3.org/2000/svg">
<path fill-rule="evenodd" clip-rule="evenodd" d="M7.52873 7.02858C7.78908 6.76824 8.21119 6.76824 8.47154 7.02858L11.1382 9.69525C11.3986 9.9556 11.3986 10.3777 11.1382 10.6381C10.8779 10.8984 10.4557 10.8984 10.1954 10.6381L8.00014 8.4428L5.80487 10.6381C5.54453 10.8984 5.12242 10.8984 4.86207 10.6381C4.60172 10.3777 4.60172 9.9556 4.86207 9.69525L7.52873 7.02858Z" fill="#8E9491"/>
<path fill-rule="evenodd" clip-rule="evenodd" d="M8.00014 6.83332C8.36833 6.83332 8.6668 7.1318 8.6668 7.49999V13.5C8.6668 13.8682 8.36833 14.1667 8.00014 14.1667C7.63195 14.1667 7.33347 13.8682 7.33347 13.5V7.49999C7.33347 7.1318 7.63195 6.83332 8.00014 6.83332Z" fill="#8E9491"/>
<path fill-rule="evenodd" clip-rule="evenodd" d="M5.77567 0.83903C6.68199 0.805637 7.5841 0.978141 8.41416 1.34357C9.24422 1.70901 9.98063 2.25786 10.568 2.94886C11.0423 3.50681 11.4095 4.14572 11.6529 4.83332H12.0001C12.8888 4.83391 13.7525 5.13043 14.4539 5.67608C15.1554 6.22173 15.6551 6.98544 15.8743 7.84667C16.0935 8.70791 16.0197 9.61762 15.6645 10.4322C15.3092 11.2468 14.6928 11.9199 13.9126 12.3453C13.5893 12.5216 13.1844 12.4024 13.0081 12.0791C12.8319 11.7558 12.9511 11.3509 13.2744 11.1747C13.7945 10.8911 14.2055 10.4423 14.4423 9.89926C14.6791 9.35618 14.7283 8.74971 14.5822 8.17556C14.4361 7.6014 14.1029 7.09226 13.6353 6.72849C13.1676 6.36473 12.5922 6.16705 11.9997 6.16666H11.1601C10.8562 6.16666 10.5908 5.96111 10.5147 5.66686C10.3381 4.98392 10.009 4.34989 9.55216 3.81244C9.09529 3.27499 8.52252 2.84811 7.87692 2.56388C7.23131 2.27966 6.52968 2.14549 5.82476 2.17146C5.11984 2.19743 4.42998 2.38287 3.80705 2.71383C3.18411 3.0448 2.64431 3.51267 2.22822 4.08228C1.81214 4.6519 1.53059 5.30842 1.40476 6.00251C1.27893 6.69659 1.31209 7.41017 1.50173 8.0896C1.69138 8.76902 2.03258 9.39662 2.49969 9.92519C2.74351 10.2011 2.7175 10.6224 2.4416 10.8662C2.1657 11.11 1.74439 11.084 1.50058 10.8081C0.900012 10.1285 0.461322 9.32161 0.21749 8.44806C-0.0263405 7.57452 -0.0689672 6.65706 0.0928155 5.76466C0.254598 4.87227 0.61658 4.02816 1.15155 3.2958C1.68651 2.56344 2.38055 1.96189 3.18146 1.53637C3.98238 1.11084 4.86934 0.872422 5.77567 0.83903Z" fill="#8E9491"/>
<path fill-rule="evenodd" clip-rule="evenodd" d="M7.52873 7.02858C7.78908 6.76824 8.21119 6.76824 8.47154 7.02858L11.1382 9.69525C11.3986 9.9556 11.3986 10.3777 11.1382 10.6381C10.8779 10.8984 10.4557 10.8984 10.1954 10.6381L8.00014 8.4428L5.80487 10.6381C5.54453 10.8984 5.12242 10.8984 4.86207 10.6381C4.60172 10.3777 4.60172 9.9556 4.86207 9.69525L7.52873 7.02858Z" fill="#8E9491"/>
</svg>
