<svg width="16" height="16" viewBox="0 0 16 16" fill="none" xmlns="http://www.w3.org/2000/svg">
<g clip-path="url(#clip0_295_1119)">
<path fill-rule="evenodd" clip-rule="evenodd" d="M8.00002 1.99999C4.68631 1.99999 2.00002 4.68628 2.00002 7.99999C2.00002 11.3137 4.68631 14 8.00002 14C11.3137 14 14 11.3137 14 7.99999C14 4.68628 11.3137 1.99999 8.00002 1.99999ZM0.666687 7.99999C0.666687 3.9499 3.94993 0.666656 8.00002 0.666656C12.0501 0.666656 15.3334 3.9499 15.3334 7.99999C15.3334 12.0501 12.0501 15.3333 8.00002 15.3333C3.94993 15.3333 0.666687 12.0501 0.666687 7.99999Z" fill="#565B59"/>
<path fill-rule="evenodd" clip-rule="evenodd" d="M8.1721 5.34954C7.86175 5.2963 7.54258 5.35462 7.27111 5.51417C6.99964 5.67371 6.7934 5.92418 6.68891 6.22122C6.56673 6.56855 6.18612 6.75106 5.83879 6.62888C5.49146 6.5067 5.30895 6.12609 5.43113 5.77876C5.64011 5.18469 6.0526 4.68374 6.59553 4.36466C7.13847 4.04557 7.77681 3.92893 8.39751 4.03539C9.0182 4.14186 9.58119 4.46456 9.98675 4.94634C10.3922 5.42802 10.6142 6.03764 10.6134 6.66726C10.6131 7.6875 9.85665 8.36125 9.31649 8.72136C9.02607 8.91497 8.74039 9.05733 8.52995 9.15086C8.42378 9.19805 8.33438 9.23386 8.26995 9.2584C8.23769 9.27069 8.21153 9.28022 8.19249 9.28699L8.16933 9.2951L8.16196 9.29761L8.15936 9.29849L8.15834 9.29883C8.15834 9.29883 8.15751 9.29911 7.94669 8.66666L8.1575 9.29911C7.80821 9.41554 7.43066 9.22677 7.31423 8.87747C7.19788 8.52841 7.38632 8.15114 7.73517 8.03443L7.73432 8.03472L7.73517 8.03443L7.74581 8.0307C7.75606 8.02705 7.77287 8.02096 7.79529 8.01241C7.84025 7.99529 7.9071 7.9686 7.98843 7.93245C8.15298 7.85931 8.36731 7.75168 8.57689 7.61196C9.03662 7.30547 9.28002 6.97941 9.28002 6.66666L9.28002 6.66566C9.28049 6.35078 9.1695 6.0459 8.96672 5.80501C8.76394 5.56412 8.48245 5.40277 8.1721 5.34954Z" fill="#565B59"/>
<path fill-rule="evenodd" clip-rule="evenodd" d="M7.33335 11.3333C7.33335 10.9651 7.63183 10.6667 8.00002 10.6667H8.00669C8.37488 10.6667 8.67335 10.9651 8.67335 11.3333C8.67335 11.7015 8.37488 12 8.00669 12H8.00002C7.63183 12 7.33335 11.7015 7.33335 11.3333Z" fill="#565B59"/>
</g>
<defs>
<clipPath id="clip0_295_1119">
<rect width="16" height="16" fill="white"/>
</clipPath>
</defs>
</svg>
