<svg width="16" height="16" viewBox="0 0 16 16" fill="none" xmlns="http://www.w3.org/2000/svg">
<path fill-rule="evenodd" clip-rule="evenodd" d="M7.33335 6.66675C6.96516 6.66675 6.66669 6.96522 6.66669 7.33341V13.3334C6.66669 13.7016 6.96516 14.0001 7.33335 14.0001H13.3334C13.7015 14.0001 14 13.7016 14 13.3334V7.33341C14 6.96522 13.7015 6.66675 13.3334 6.66675H7.33335ZM5.33335 7.33341C5.33335 6.22884 6.22878 5.33341 7.33335 5.33341H13.3334C14.4379 5.33341 15.3334 6.22884 15.3334 7.33341V13.3334C15.3334 14.438 14.4379 15.3334 13.3334 15.3334H7.33335C6.22878 15.3334 5.33335 14.438 5.33335 13.3334V7.33341Z" fill="#565B59"/>
<path fill-rule="evenodd" clip-rule="evenodd" d="M2.66669 2.00008C2.48988 2.00008 2.32031 2.07032 2.19528 2.19534C2.07026 2.32037 2.00002 2.48994 2.00002 2.66675V8.66675C2.00002 8.84356 2.07026 9.01313 2.19528 9.13815C2.32031 9.26318 2.48988 9.33341 2.66669 9.33341H3.33335C3.70154 9.33341 4.00002 9.63189 4.00002 10.0001C4.00002 10.3683 3.70154 10.6667 3.33335 10.6667H2.66669C2.13625 10.6667 1.62755 10.456 1.25247 10.081C0.877401 9.70589 0.666687 9.19718 0.666687 8.66675V2.66675C0.666687 2.13632 0.877401 1.62761 1.25247 1.25253C1.62755 0.877462 2.13625 0.666748 2.66669 0.666748H8.66669C9.19712 0.666748 9.70583 0.877462 10.0809 1.25253C10.456 1.62761 10.6667 2.13631 10.6667 2.66675V3.33341C10.6667 3.7016 10.3682 4.00008 10 4.00008C9.63183 4.00008 9.33335 3.7016 9.33335 3.33341V2.66675C9.33335 2.48994 9.26311 2.32037 9.13809 2.19534C9.01307 2.07032 8.8435 2.00008 8.66669 2.00008H2.66669Z" fill="#565B59"/>
</svg>
