<svg width="14" height="14" viewBox="0 0 14 14" fill="none" xmlns="http://www.w3.org/2000/svg">
<path fill-rule="evenodd" clip-rule="evenodd" d="M6.33302 12.8333C6.33302 12.4651 6.6315 12.1667 6.99969 12.1667H12.9997C13.3679 12.1667 13.6664 12.4651 13.6664 12.8333C13.6664 13.2015 13.3679 13.5 12.9997 13.5H6.99969C6.6315 13.5 6.33302 13.2015 6.33302 12.8333Z" fill="#8E9491"/>
<path fill-rule="evenodd" clip-rule="evenodd" d="M10.9997 2.08577C10.8014 2.08577 10.6113 2.16453 10.4711 2.30473L2.26833 10.5075L1.91593 11.9171L3.32552 11.5647L11.5283 3.36192C11.5977 3.2925 11.6528 3.21009 11.6903 3.1194C11.7279 3.0287 11.7472 2.93149 11.7472 2.83332C11.7472 2.73515 11.7279 2.63794 11.6903 2.54725C11.6528 2.45655 11.5977 2.37414 11.5283 2.30473C11.4589 2.23531 11.3765 2.18025 11.2858 2.14268C11.1951 2.10511 11.0979 2.08577 10.9997 2.08577ZM9.52828 1.36192C9.91852 0.971676 10.4478 0.752441 10.9997 0.752441C11.273 0.752441 11.5435 0.806265 11.796 0.910839C12.0485 1.01541 12.2779 1.16869 12.4711 1.36192C12.6643 1.55514 12.8176 1.78454 12.9222 2.037C13.0267 2.28947 13.0806 2.56006 13.0806 2.83332C13.0806 3.10659 13.0267 3.37718 12.9222 3.62964C12.8176 3.8821 12.6643 4.1115 12.4711 4.30473L4.13776 12.6381C4.05232 12.7235 3.94527 12.7841 3.82805 12.8134L1.16138 13.4801C0.934196 13.5369 0.693871 13.4703 0.528284 13.3047C0.362697 13.1391 0.296131 12.8988 0.352927 12.6716L1.01959 10.005C1.0489 9.88774 1.10951 9.78069 1.19495 9.69525L9.52828 1.36192Z" fill="#8E9491"/>
</svg>
