<svg width="16" height="16" viewBox="0 0 16 16" fill="none" xmlns="http://www.w3.org/2000/svg">
<path d="M13.6 1.40008C13.36 1.29341 13.0733 1.34008 12.88 1.51341C12.88 1.51341 12.3 2.00008 10.6667 2.00008C9.79333 2.00008 9.04667 1.70008 8.24667 1.38008C7.36667 1.02675 6.46 0.666748 5.33333 0.666748C3.16667 0.666748 2.34 1.38675 2.19333 1.52675C2.06667 1.65341 2 1.82008 2 2.00008V14.6667C2 15.0334 2.3 15.3334 2.66667 15.3334C3.03333 15.3334 3.33333 15.0334 3.33333 14.6667V10.3601C3.62 10.2134 4.23333 10.0001 5.33333 10.0001C6.20667 10.0001 6.95333 10.3001 7.75333 10.6201C8.63333 10.9734 9.54 11.3334 10.6667 11.3334C12.8333 11.3334 13.66 10.6134 13.8067 10.4734C13.9333 10.3467 14 10.1801 14 10.0001V2.00008C14 1.74008 13.84 1.51341 13.6 1.40008ZM12.6667 9.64008C12.3733 9.78675 11.7533 10.0001 10.6667 10.0001C9.79333 10.0001 9.04667 9.70008 8.24667 9.38008C7.36667 9.02675 6.46 8.66675 5.33333 8.66675C4.46667 8.66675 3.81333 8.78008 3.33333 8.92675V2.36008C3.62667 2.21341 4.24667 2.00008 5.33333 2.00008C6.20667 2.00008 6.95333 2.30008 7.75333 2.62008C8.63333 2.97341 9.54 3.33341 10.6667 3.33341C11.5333 3.33341 12.1867 3.22008 12.6667 3.07341V9.64008Z" fill="#C7C9C8"/>
</svg>
