<svg width="12" height="16" viewBox="0 0 12 16" fill="none" xmlns="http://www.w3.org/2000/svg">
<path d="M11.6 1.40008C11.36 1.29341 11.0733 1.34008 10.88 1.51341C10.88 1.51341 10.3 2.00008 8.66667 2.00008C7.79333 2.00008 7.04667 1.70008 6.24667 1.38008C5.36667 1.02675 4.46 0.666748 3.33333 0.666748C1.16667 0.666748 0.340001 1.38675 0.193334 1.52675C0.0666673 1.65341 0 1.82008 0 2.00008V14.6667C0 15.0334 0.3 15.3334 0.666667 15.3334C1.03333 15.3334 1.33333 15.0334 1.33333 14.6667V10.3601C1.62 10.2134 2.23333 10.0001 3.33333 10.0001C4.20667 10.0001 4.95333 10.3001 5.75333 10.6201C6.63333 10.9734 7.54 11.3334 8.66667 11.3334C10.8333 11.3334 11.66 10.6134 11.8067 10.4734C11.9333 10.3467 12 10.1801 12 10.0001V2.00008C12 1.74008 11.84 1.51341 11.6 1.40008Z" fill="#ED7668"/>
</svg>
