<svg width="10" height="10" viewBox="0 0 10 10" fill="none" xmlns="http://www.w3.org/2000/svg">
<path fill-rule="evenodd" clip-rule="evenodd" d="M8 7C7.44772 7 7 7.44772 7 8C7 8.55228 7.44772 9 8 9C8.55228 9 9 8.55228 9 8C9 7.44772 8.55228 7 8 7ZM6 8C6 6.89543 6.89543 6 8 6C9.10457 6 10 6.89543 10 8C10 9.10457 9.10457 10 8 10C6.89543 10 6 9.10457 6 8Z" fill="#8E9491"/>
<path fill-rule="evenodd" clip-rule="evenodd" d="M2 1C1.44772 1 1 1.44772 1 2C1 2.55228 1.44772 3 2 3C2.55228 3 3 2.55228 3 2C3 1.44772 2.55228 1 2 1ZM0 2C0 0.89543 0.89543 0 2 0C3.10457 0 4 0.89543 4 2C4 3.10457 3.10457 4 2 4C0.89543 4 0 3.10457 0 2Z" fill="#8E9491"/>
<path fill-rule="evenodd" clip-rule="evenodd" d="M2 3C2.27614 3 2.5 3.22386 2.5 3.5C2.5 4.56087 2.92143 5.57828 3.67157 6.32843C4.42172 7.07857 5.43913 7.5 6.5 7.5C6.77614 7.5 7 7.72386 7 8C7 8.27614 6.77614 8.5 6.5 8.5C5.17392 8.5 3.90215 7.97322 2.96447 7.03553C2.02678 6.09785 1.5 4.82608 1.5 3.5C1.5 3.22386 1.72386 3 2 3Z" fill="#8E9491"/>
</svg>
