<svg width="32" height="31" viewBox="0 0 32 31" fill="none" xmlns="http://www.w3.org/2000/svg">
<path d="M31.4998 15.5H26.4998C26.4998 12.5995 25.3248 9.97454 23.4248 8.07454L26.9598 4.54004C29.7648 7.34454 31.4998 11.2195 31.4998 15.5Z" fill="#F6BB42"/>
<path d="M26.4998 15.5H31.4998C31.4998 19.775 29.7698 23.65 26.9598 26.4545L23.4248 22.9245C24.4013 21.9506 25.1756 20.7933 25.7034 19.5192C26.2311 18.245 26.5018 16.8791 26.4998 15.5Z" fill="#8CC152"/>
<path d="M26.96 26.4545V26.46C24.155 29.2645 20.285 31 16 31V26C18.9 26 21.525 24.8245 23.425 22.925L26.96 26.4545Z" fill="#37BC9B"/>
<path d="M26.96 4.54L23.425 8.0745C22.4509 7.09822 21.2935 6.32404 20.0193 5.79642C18.745 5.2688 17.3791 4.99814 16 5V0C20.285 0 24.155 1.735 26.96 4.54Z" fill="#E9573F"/>
<path d="M26.4996 15.5H21.4996C21.4996 13.98 20.8846 12.605 19.8896 11.61L23.4241 8.07495C24.4008 9.0488 25.1754 10.2061 25.7032 11.4804C26.231 12.7547 26.5017 14.1207 26.4996 15.5Z" fill="#FFCE54"/>
<path d="M19.89 19.3894L23.4245 22.9244C22.4506 23.901 21.2934 24.6754 20.0192 25.2032C18.7451 25.731 17.3791 26.0018 16 25.9999V20.9999C17.52 20.9999 18.895 20.3849 19.89 19.3894Z" fill="#48CFAD"/>
<path d="M16 26V31C11.72 31 7.84504 29.2645 5.04004 26.46L8.57504 22.925C10.475 24.8245 13.105 26 16 26Z" fill="#4A89DC"/>
<path d="M16.0002 20.9999V25.9999C13.1052 25.9999 10.4752 24.8244 8.5752 22.9249L12.1097 19.3899C12.6204 19.9009 13.227 20.3062 13.8946 20.5824C14.5622 20.8587 15.2777 21.0006 16.0002 20.9999Z" fill="#5D9CEC"/>
<path d="M15.9997 5.00001V10C14.4847 10 13.1097 10.6145 12.1147 11.61H12.1097L8.5752 8.07501C9.54937 7.09892 10.7067 6.32482 11.9808 5.79713C13.2549 5.26945 14.6207 4.99855 15.9997 5.00001Z" fill="#ED5565"/>
<path d="M8.575 22.925L5.04 26.46C2.235 23.655 0.5 19.78 0.5 15.5H5.5C5.5 18.4 6.675 21.025 8.575 22.925Z" fill="#967ADC"/>
<path d="M21.5051 15.5H26.5001C26.5001 18.4 25.3251 21.025 23.4251 22.925L19.8906 19.39C20.4015 18.8792 20.8066 18.2728 21.0827 17.6053C21.3589 16.9378 21.5008 16.2224 21.5001 15.5H21.5051Z" fill="#A0D468"/>
<path d="M8.575 8.07446L12.1095 11.6095C11.5983 12.12 11.1929 12.7265 10.9167 13.3942C10.6405 14.0618 10.4989 14.7774 10.5 15.5H5.5C5.5 12.5995 6.675 9.97446 8.575 8.07446Z" fill="#EC87C0"/>
<path d="M12.11 19.3895L8.57551 22.9245C7.59887 21.9507 6.82437 20.7935 6.29657 19.5193C5.76876 18.2451 5.49805 16.8792 5.50001 15.5H10.5C10.5 17.0145 11.115 18.395 12.11 19.3895Z" fill="#AC92EC"/>
<path d="M5.04 4.54004L8.575 8.07454C6.675 9.97454 5.5 12.5995 5.5 15.5H0.5C0.5 11.2195 2.235 7.34454 5.04 4.54004Z" fill="#D770AD"/>
<path d="M23.425 8.0745L19.8905 11.6095C19.38 11.0982 18.7735 10.6928 18.1058 10.4166C17.4382 10.1403 16.7225 9.99878 16 10V5C18.9 5 21.525 6.175 23.425 8.0745Z" fill="#FC6E51"/>
<path d="M16 0V5C13.105 5 10.475 6.175 8.57504 8.0745L5.04004 4.54C7.84504 1.735 11.72 0 16 0Z" fill="#DA4453"/>
</svg>
