<svg width="40" height="40" viewBox="0 0 40 40" fill="none" xmlns="http://www.w3.org/2000/svg">
<g clip-path="url(#clip0_236_3690)">
<path fill-rule="evenodd" clip-rule="evenodd" d="M20.0002 12.4999C15.858 12.4999 12.5002 15.8578 12.5002 19.9999C12.5002 24.1421 15.858 27.4999 20.0002 27.4999C24.1423 27.4999 27.5002 24.1421 27.5002 19.9999C27.5002 15.8578 24.1423 12.4999 20.0002 12.4999ZM10.8335 19.9999C10.8335 14.9373 14.9376 10.8333 20.0002 10.8333C25.0628 10.8333 29.1668 14.9373 29.1668 19.9999C29.1668 25.0625 25.0628 29.1666 20.0002 29.1666C14.9376 29.1666 10.8335 25.0625 10.8335 19.9999Z" fill="#565B59"/>
<path fill-rule="evenodd" clip-rule="evenodd" d="M20.2153 16.6869C19.8273 16.6203 19.4284 16.6932 19.089 16.8926C18.7497 17.0921 18.4919 17.4052 18.3613 17.7765C18.2085 18.2106 17.7328 18.4388 17.2986 18.286C16.8645 18.1333 16.6363 17.6575 16.7891 17.2234C17.0503 16.4808 17.5659 15.8546 18.2446 15.4558C18.9232 15.0569 19.7212 14.9111 20.497 15.0442C21.2729 15.1773 21.9766 15.5806 22.4836 16.1829C22.9904 16.785 23.2679 17.547 23.2668 18.334C23.2665 19.6093 22.3209 20.4515 21.6457 20.9016C21.2827 21.1436 20.9256 21.3216 20.6626 21.4385C20.5299 21.4975 20.4181 21.5423 20.3376 21.5729C20.2972 21.5883 20.2645 21.6002 20.2407 21.6087L20.2118 21.6188L20.2026 21.6219L20.1993 21.623L20.1981 21.6235C20.1981 21.6235 20.197 21.6238 19.9335 20.8333L20.197 21.6238C19.7604 21.7694 19.2885 21.5334 19.1429 21.0968C18.9975 20.6604 19.233 20.1889 19.6691 20.043L19.668 20.0433L19.6691 20.043L19.6824 20.0383C19.6952 20.0337 19.7162 20.0261 19.7443 20.0154C19.8004 19.994 19.884 19.9607 19.9857 19.9155C20.1914 19.8241 20.4593 19.6895 20.7212 19.5149C21.2959 19.1318 21.6002 18.7242 21.6002 18.3333L21.6002 18.332C21.6007 17.9384 21.462 17.5573 21.2085 17.2562C20.9551 16.9551 20.6032 16.7534 20.2153 16.6869Z" fill="#565B59"/>
<path fill-rule="evenodd" clip-rule="evenodd" d="M19.1668 24.1666C19.1668 23.7063 19.5399 23.3333 20.0002 23.3333H20.0085C20.4687 23.3333 20.8418 23.7063 20.8418 24.1666C20.8418 24.6268 20.4687 24.9999 20.0085 24.9999H20.0002C19.5399 24.9999 19.1668 24.6268 19.1668 24.1666Z" fill="#565B59"/>
</g>
<defs>
<clipPath id="clip0_236_3690">
<rect width="20" height="20" fill="white" transform="translate(10 10)"/>
</clipPath>
</defs>
</svg>
