<svg width="16" height="14" viewBox="0 0 16 14" fill="none" xmlns="http://www.w3.org/2000/svg">
<path fill-rule="evenodd" clip-rule="evenodd" d="M0.976311 9.30964C1.60143 8.68452 2.44928 8.33333 3.33333 8.33333H8.66667C9.55072 8.33333 10.3986 8.68452 11.0237 9.30964C11.6488 9.93476 12 10.7826 12 11.6667V13C12 13.3682 11.7015 13.6667 11.3333 13.6667C10.9651 13.6667 10.6667 13.3682 10.6667 13V11.6667C10.6667 11.1362 10.456 10.6275 10.0809 10.2524C9.70581 9.87738 9.1971 9.66666 8.66667 9.66666H3.33333C2.8029 9.66666 2.29419 9.87738 1.91912 10.2524C1.54405 10.6275 1.33333 11.1362 1.33333 11.6667V13C1.33333 13.3682 1.03486 13.6667 0.666667 13.6667C0.298477 13.6667 0 13.3682 0 13V11.6667C0 10.7826 0.35119 9.93476 0.976311 9.30964Z" fill="#565B59"/>
<path fill-rule="evenodd" clip-rule="evenodd" d="M6 1.66666C4.89543 1.66666 4 2.56209 4 3.66666C4 4.77123 4.89543 5.66666 6 5.66666C7.10457 5.66666 8 4.77123 8 3.66666C8 2.56209 7.10457 1.66666 6 1.66666ZM2.66667 3.66666C2.66667 1.82571 4.15905 0.333328 6 0.333328C7.84095 0.333328 9.33333 1.82571 9.33333 3.66666C9.33333 5.50761 7.84095 7 6 7C4.15905 7 2.66667 5.50761 2.66667 3.66666Z" fill="#565B59"/>
<path fill-rule="evenodd" clip-rule="evenodd" d="M12.6878 8.92C12.7799 8.5635 13.1435 8.34912 13.5 8.44116C14.2151 8.6258 14.8486 9.04271 15.3011 9.62643C15.7536 10.2101 15.9994 10.9276 16 11.6662V13C16 13.3682 15.7015 13.6667 15.3333 13.6667C14.9651 13.6667 14.6667 13.3682 14.6667 13V11.6672C14.6663 11.2241 14.5188 10.7935 14.2474 10.4433C13.9759 10.0931 13.5957 9.84294 13.1667 9.73216C12.8102 9.64011 12.5958 9.27649 12.6878 8.92Z" fill="#565B59"/>
<path fill-rule="evenodd" clip-rule="evenodd" d="M10.0208 0.921302C10.1122 0.564618 10.4753 0.349503 10.832 0.440828C11.549 0.624413 12.1846 1.04141 12.6384 1.62609C13.0922 2.21076 13.3386 2.92985 13.3386 3.67C13.3386 4.41014 13.0922 5.12923 12.6384 5.7139C12.1846 6.29858 11.549 6.71558 10.832 6.89916C10.4753 6.99049 10.1122 6.77537 10.0208 6.41869C9.92951 6.062 10.1446 5.69882 10.5013 5.6075C10.9315 5.49734 11.3128 5.24714 11.5851 4.89634C11.8574 4.54553 12.0052 4.11408 12.0052 3.67C12.0052 3.22591 11.8574 2.79446 11.5851 2.44365C11.3128 2.09285 10.9315 1.84265 10.5013 1.7325C10.1446 1.64117 9.92951 1.27799 10.0208 0.921302Z" fill="#565B59"/>
</svg>
