<svg width="14" height="14" viewBox="0 0 14 14" fill="none" xmlns="http://www.w3.org/2000/svg">
<path fill-rule="evenodd" clip-rule="evenodd" d="M11 9.66659C10.2636 9.66659 9.66665 10.2635 9.66665 10.9999C9.66665 11.7363 10.2636 12.3333 11 12.3333C11.7364 12.3333 12.3333 11.7363 12.3333 10.9999C12.3333 10.2635 11.7364 9.66659 11 9.66659ZM8.33331 10.9999C8.33331 9.52716 9.52722 8.33325 11 8.33325C12.4727 8.33325 13.6666 9.52716 13.6666 10.9999C13.6666 12.4727 12.4727 13.6666 11 13.6666C9.52722 13.6666 8.33331 12.4727 8.33331 10.9999Z" fill="#565B59"/>
<path fill-rule="evenodd" clip-rule="evenodd" d="M2.99998 1.66659C2.2636 1.66659 1.66665 2.26354 1.66665 2.99992C1.66665 3.7363 2.2636 4.33325 2.99998 4.33325C3.73636 4.33325 4.33331 3.7363 4.33331 2.99992C4.33331 2.26354 3.73636 1.66659 2.99998 1.66659ZM0.333313 2.99992C0.333313 1.52716 1.52722 0.333252 2.99998 0.333252C4.47274 0.333252 5.66665 1.52716 5.66665 2.99992C5.66665 4.47268 4.47274 5.66659 2.99998 5.66659C1.52722 5.66659 0.333313 4.47268 0.333313 2.99992Z" fill="#565B59"/>
<path fill-rule="evenodd" clip-rule="evenodd" d="M2.99998 4.33325C3.36817 4.33325 3.66665 4.63173 3.66665 4.99992C3.66665 6.41441 4.22855 7.77096 5.22874 8.77116C6.22894 9.77135 7.58549 10.3333 8.99998 10.3333C9.36817 10.3333 9.66665 10.6317 9.66665 10.9999C9.66665 11.3681 9.36817 11.6666 8.99998 11.6666C7.23187 11.6666 5.53618 10.9642 4.28593 9.71396C4.06156 9.48959 3.85484 9.25087 3.66665 8.99996V12.9999C3.66665 13.3681 3.36817 13.6666 2.99998 13.6666C2.63179 13.6666 2.33331 13.3681 2.33331 12.9999V4.99992C2.33331 4.63173 2.63179 4.33325 2.99998 4.33325Z" fill="#565B59"/>
</svg>
