<svg width="4" height="12" viewBox="0 0 4 12" fill="none" xmlns="http://www.w3.org/2000/svg">
<path fill-rule="evenodd" clip-rule="evenodd" d="M0.666626 6C0.666626 5.26362 1.26358 4.66667 1.99996 4.66667C2.73634 4.66667 3.33329 5.26362 3.33329 6C3.33329 6.73638 2.73634 7.33333 1.99996 7.33333C1.26358 7.33333 0.666626 6.73638 0.666626 6Z" fill="#8E9491"/>
<path fill-rule="evenodd" clip-rule="evenodd" d="M0.666626 1.33333C0.666626 0.596954 1.26358 0 1.99996 0C2.73634 0 3.33329 0.596954 3.33329 1.33333C3.33329 2.06971 2.73634 2.66667 1.99996 2.66667C1.26358 2.66667 0.666626 2.06971 0.666626 1.33333Z" fill="#8E9491"/>
<path fill-rule="evenodd" clip-rule="evenodd" d="M0.666626 10.6667C0.666626 9.93029 1.26358 9.33333 1.99996 9.33333C2.73634 9.33333 3.33329 9.93029 3.33329 10.6667C3.33329 11.403 2.73634 12 1.99996 12C1.26358 12 0.666626 11.403 0.666626 10.6667Z" fill="#8E9491"/>
</svg>
