<svg width="14" height="14" viewBox="0 0 14 14" fill="none" xmlns="http://www.w3.org/2000/svg">
<path fill-rule="evenodd" clip-rule="evenodd" d="M2.33331 1.66659C2.1565 1.66659 1.98693 1.73682 1.86191 1.86185C1.73688 1.98687 1.66665 2.15644 1.66665 2.33325V11.6666C1.66665 11.8434 1.73688 12.013 1.86191 12.138C1.98693 12.263 2.1565 12.3333 2.33331 12.3333H4.99998C5.36817 12.3333 5.66665 12.6317 5.66665 12.9999C5.66665 13.3681 5.36817 13.6666 4.99998 13.6666H2.33331C1.80288 13.6666 1.29417 13.4559 0.919099 13.0808C0.544027 12.7057 0.333313 12.197 0.333313 11.6666V2.33325C0.333313 1.80282 0.544027 1.29411 0.919099 0.919038C1.29417 0.543966 1.80288 0.333252 2.33331 0.333252H4.99998C5.36817 0.333252 5.66665 0.631729 5.66665 0.999919C5.66665 1.36811 5.36817 1.66659 4.99998 1.66659H2.33331Z" fill="#565B59"/>
<path fill-rule="evenodd" clip-rule="evenodd" d="M9.19524 3.19518C9.45559 2.93483 9.8777 2.93483 10.1381 3.19518L13.4714 6.52851C13.7317 6.78886 13.7317 7.21097 13.4714 7.47132L10.1381 10.8047C9.8777 11.065 9.45559 11.065 9.19524 10.8047C8.93489 10.5443 8.93489 10.1222 9.19524 9.86185L12.0572 6.99992L9.19524 4.13799C8.93489 3.87764 8.93489 3.45553 9.19524 3.19518Z" fill="#565B59"/>
<path fill-rule="evenodd" clip-rule="evenodd" d="M4.33331 6.99992C4.33331 6.63173 4.63179 6.33325 4.99998 6.33325H13C13.3682 6.33325 13.6666 6.63173 13.6666 6.99992C13.6666 7.36811 13.3682 7.66659 13 7.66659H4.99998C4.63179 7.66659 4.33331 7.36811 4.33331 6.99992Z" fill="#565B59"/>
</svg>
