<svg width="10" height="12" viewBox="0 0 10 12" fill="none" xmlns="http://www.w3.org/2000/svg">
<path fill-rule="evenodd" clip-rule="evenodd" d="M3 0.5C3.27614 0.5 3.5 0.723858 3.5 1V1.5H6.5V1C6.5 0.723858 6.72386 0.5 7 0.5C7.27614 0.5 7.5 0.723858 7.5 1V1.5H8.5C9.32843 1.5 10 2.17157 10 3V10C10 10.8284 9.32843 11.5 8.5 11.5H1.5C0.671573 11.5 0 10.8284 0 10V3C0 2.17157 0.671573 1.5 1.5 1.5H2.5V1C2.5 0.723858 2.72386 0.5 3 0.5ZM2.5 2.5H1.5C1.22386 2.5 1 2.72386 1 3V4.5H9V3C9 2.72386 8.77614 2.5 8.5 2.5H7.5V3C7.5 3.27614 7.27614 3.5 7 3.5C6.72386 3.5 6.5 3.27614 6.5 3V2.5H3.5V3C3.5 3.27614 3.27614 3.5 3 3.5C2.72386 3.5 2.5 3.27614 2.5 3V2.5ZM9 5.5H1V10C1 10.2761 1.22386 10.5 1.5 10.5H8.5C8.77614 10.5 9 10.2761 9 10V5.5Z" fill="#565B59"/>
</svg>
