<svg width="40" height="40" viewBox="0 0 40 40" fill="none" xmlns="http://www.w3.org/2000/svg">
<path fill-rule="evenodd" clip-rule="evenodd" d="M25.8332 11.6667H14.1665C12.7915 11.6667 11.6665 12.7834 11.6665 14.1667V25.8334C11.6665 27.2084 12.7915 28.3334 14.1665 28.3334H25.8332C27.2165 28.3334 28.3332 27.2084 28.3332 25.8334V14.1667C28.3332 12.7834 27.2165 11.6667 25.8332 11.6667ZM16.6665 26.6667H14.1665C13.7082 26.6667 13.3332 26.2917 13.3332 25.8334V14.1667C13.3332 13.7001 13.7082 13.3334 14.1665 13.3334H16.6665V26.6667ZM26.6665 25.8334C26.6665 26.2917 26.2998 26.6667 25.8332 26.6667H18.3332V13.3334H25.8332C26.2998 13.3334 26.6665 13.7001 26.6665 14.1667V25.8334Z" fill="#565B59"/>
<path fill-rule="evenodd" clip-rule="evenodd" d="M21.7832 17.6417C21.5665 17.4501 21.2165 17.4501 20.9998 17.6417C20.7832 17.8417 20.7832 18.1584 20.9998 18.3501L22.8248 20.0001L20.9998 21.6417C20.7832 21.8417 20.7832 22.1584 20.9998 22.3501C21.2165 22.5501 21.5665 22.5501 21.7832 22.3501L24.0082 20.3501C24.2248 20.1584 24.2248 19.8417 24.0082 19.6417L21.7832 17.6417Z" fill="#565B59"/>
</svg>
