<svg width="16" height="16" viewBox="0 0 16 16" fill="none" xmlns="http://www.w3.org/2000/svg">
<path fill-rule="evenodd" clip-rule="evenodd" d="M8.00008 2.00008C4.68637 2.00008 2.00008 4.68637 2.00008 8.00008C2.00008 11.3138 4.68637 14.0001 8.00008 14.0001C11.3138 14.0001 14.0001 11.3138 14.0001 8.00008C14.0001 4.68637 11.3138 2.00008 8.00008 2.00008ZM0.666748 8.00008C0.666748 3.94999 3.94999 0.666748 8.00008 0.666748C12.0502 0.666748 15.3334 3.94999 15.3334 8.00008C15.3334 12.0502 12.0502 15.3334 8.00008 15.3334C3.94999 15.3334 0.666748 12.0502 0.666748 8.00008Z" fill="#565B59"/>
<path fill-rule="evenodd" clip-rule="evenodd" d="M8.00008 4.66675C8.36827 4.66675 8.66675 4.96522 8.66675 5.33341V10.6667C8.66675 11.0349 8.36827 11.3334 8.00008 11.3334C7.63189 11.3334 7.33341 11.0349 7.33341 10.6667V5.33341C7.33341 4.96522 7.63189 4.66675 8.00008 4.66675Z" fill="#565B59"/>
<path fill-rule="evenodd" clip-rule="evenodd" d="M4.66675 8.00008C4.66675 7.63189 4.96522 7.33341 5.33341 7.33341H10.6667C11.0349 7.33341 11.3334 7.63189 11.3334 8.00008C11.3334 8.36827 11.0349 8.66675 10.6667 8.66675H5.33341C4.96522 8.66675 4.66675 8.36827 4.66675 8.00008Z" fill="#565B59"/>
</svg>
