<svg width="14" height="13" viewBox="0 0 14 13" fill="none" xmlns="http://www.w3.org/2000/svg">
<path fill-rule="evenodd" clip-rule="evenodd" d="M6.33333 12.3333C6.33333 11.9651 6.6318 11.6667 6.99999 11.6667H13C13.3682 11.6667 13.6667 11.9651 13.6667 12.3333C13.6667 12.7015 13.3682 13 13 13H6.99999C6.6318 13 6.33333 12.7015 6.33333 12.3333Z" fill="#565B59"/>
<path fill-rule="evenodd" clip-rule="evenodd" d="M11 1.58577C10.8017 1.58577 10.6116 1.66453 10.4714 1.80473L2.26864 10.0075L1.91624 11.4171L3.32583 11.0647L11.5286 2.86192C11.598 2.7925 11.6531 2.71009 11.6906 2.6194C11.7282 2.5287 11.7475 2.43149 11.7475 2.33332C11.7475 2.23515 11.7282 2.13794 11.6906 2.04725C11.6531 1.95655 11.598 1.87414 11.5286 1.80473C11.4592 1.73531 11.3768 1.68025 11.2861 1.64268C11.1954 1.60511 11.0982 1.58577 11 1.58577ZM9.52859 0.861917C9.91883 0.471676 10.4481 0.252441 11 0.252441C11.2733 0.252441 11.5438 0.306265 11.7963 0.410839C12.0488 0.515413 12.2782 0.668689 12.4714 0.861917C12.6646 1.05514 12.8179 1.28454 12.9225 1.537C13.0271 1.78947 13.0809 2.06006 13.0809 2.33332C13.0809 2.60659 13.0271 2.87718 12.9225 3.12964C12.8179 3.3821 12.6646 3.6115 12.4714 3.80473L4.13806 12.1381C4.05263 12.2235 3.94557 12.2841 3.82835 12.3134L1.16168 12.9801C0.934501 13.0369 0.694176 12.9703 0.528589 12.8047C0.363002 12.6391 0.296436 12.3988 0.353232 12.1716L1.0199 9.50497C1.0492 9.38774 1.10982 9.28069 1.19526 9.19525L9.52859 0.861917Z" fill="#565B59"/>
</svg>
