<svg width="12" height="12" viewBox="0 0 12 12" fill="none" xmlns="http://www.w3.org/2000/svg">
<path fill-rule="evenodd" clip-rule="evenodd" d="M4.4714 0.195262C4.73175 0.455612 4.73175 0.877722 4.4714 1.13807L1.60948 4L4.4714 6.86193C4.73175 7.12228 4.73175 7.54439 4.4714 7.80474C4.21106 8.06509 3.78894 8.06509 3.5286 7.80474L0.195262 4.4714C-0.0650874 4.21106 -0.0650874 3.78894 0.195262 3.5286L3.5286 0.195262C3.78894 -0.0650874 4.21106 -0.0650874 4.4714 0.195262Z" fill="#B01F24"/>
<path fill-rule="evenodd" clip-rule="evenodd" d="M9.93411e-09 4C9.93411e-09 3.63181 0.298477 3.33333 0.666667 3.33333H8.66667C9.55072 3.33333 10.3986 3.68452 11.0237 4.30964C11.6488 4.93477 12 5.78261 12 6.66667V11.3333C12 11.7015 11.7015 12 11.3333 12C10.9651 12 10.6667 11.7015 10.6667 11.3333V6.66667C10.6667 6.13623 10.456 5.62753 10.0809 5.25245C9.70581 4.87738 9.1971 4.66667 8.66667 4.66667H0.666667C0.298477 4.66667 9.93411e-09 4.36819 9.93411e-09 4Z" fill="#B01F24"/>
</svg>
