<svg width="18" height="18" viewBox="0 0 18 18" fill="none" xmlns="http://www.w3.org/2000/svg">
<path fill-rule="evenodd" clip-rule="evenodd" d="M14.8333 0.666748H3.16663C1.79163 0.666748 0.666626 1.78341 0.666626 3.16675V14.8334C0.666626 16.2084 1.79163 17.3334 3.16663 17.3334H14.8333C16.2166 17.3334 17.3333 16.2084 17.3333 14.8334V3.16675C17.3333 1.78341 16.2166 0.666748 14.8333 0.666748ZM5.66663 15.6667H3.16663C2.70829 15.6667 2.33329 15.2917 2.33329 14.8334V3.16675C2.33329 2.70008 2.70829 2.33341 3.16663 2.33341H5.66663V15.6667ZM15.6666 14.8334C15.6666 15.2917 15.3 15.6667 14.8333 15.6667H7.33329V2.33341H14.8333C15.3 2.33341 15.6666 2.70008 15.6666 3.16675V14.8334Z" fill="#565B59"/>
<path fill-rule="evenodd" clip-rule="evenodd" d="M10.7833 6.64175C10.5666 6.45008 10.2166 6.45008 9.99996 6.64175C9.78329 6.84175 9.78329 7.15842 9.99996 7.35008L11.825 9.00008L9.99996 10.6417C9.78329 10.8417 9.78329 11.1584 9.99996 11.3501C10.2166 11.5501 10.5666 11.5501 10.7833 11.3501L13.0083 9.35008C13.225 9.15841 13.225 8.84175 13.0083 8.64175L10.7833 6.64175Z" fill="#565B59"/>
</svg>
