<svg width="20" height="20" viewBox="0 0 20 20" fill="none" xmlns="http://www.w3.org/2000/svg">
<path fill-rule="evenodd" clip-rule="evenodd" d="M17 0H3C1.35 0 0 1.34 0 3V17C0 18.65 1.35 20 3 20H17C18.66 20 20 18.65 20 17V3C20 1.34 18.66 0 17 0ZM6 18H3C2.45 18 2 17.55 2 17V3C2 2.44 2.45 2 3 2H6V18ZM18 17C18 17.55 17.56 18 17 18H8V2H17C17.56 2 18 2.44 18 3V17Z" fill="#8E9491"/>
<path fill-rule="evenodd" clip-rule="evenodd" d="M13.87 12.8275C14.13 13.0575 14.55 13.0575 14.81 12.8275C15.07 12.5875 15.07 12.2075 14.81 11.9775L12.62 9.9975L14.81 8.0275C15.07 7.7875 15.07 7.4075 14.81 7.1775C14.55 6.9375 14.13 6.9375 13.87 7.1775L11.2 9.5775C10.94 9.8075 10.94 10.1875 11.2 10.4275L13.87 12.8275Z" fill="#8E9491"/>
</svg>
