<svg width="12" height="12" viewBox="0 0 12 12" fill="none" xmlns="http://www.w3.org/2000/svg">
<path fill-rule="evenodd" clip-rule="evenodd" d="M7.89002 1.19385C7.4919 1.19385 7.11009 1.352 6.82858 1.63351L2.23358 6.22851C1.76442 6.69767 1.50085 7.33398 1.50085 7.99746C1.50085 8.66094 1.76442 9.29725 2.23358 9.76641C2.70273 10.2356 3.33904 10.4991 4.00252 10.4991C4.66601 10.4991 5.30232 10.2356 5.77147 9.76641L10.3665 5.17141C10.5617 4.97614 10.8783 4.97614 11.0736 5.17141C11.2688 5.36667 11.2688 5.68325 11.0736 5.87851L6.47858 10.4735C5.82189 11.1302 4.93122 11.4991 4.00252 11.4991C3.07382 11.4991 2.18316 11.1302 1.52647 10.4735C0.869779 9.81682 0.500854 8.92616 0.500854 7.99746C0.500854 7.06876 0.869779 6.1781 1.52647 5.52141L6.12147 0.926406C6.59052 0.457357 7.22669 0.193848 7.89002 0.193848C8.55336 0.193848 9.18953 0.457357 9.65858 0.926406C10.1276 1.39546 10.3911 2.03162 10.3911 2.69496C10.3911 3.3583 10.1276 3.99446 9.65858 4.46351L5.05858 9.05851C4.77717 9.33992 4.3955 9.49802 3.99752 9.49802C3.59955 9.49802 3.21788 9.33992 2.93647 9.05851C2.65506 8.7771 2.49697 8.39543 2.49697 7.99746C2.49697 7.59949 2.65506 7.21782 2.93647 6.93641L7.18168 2.6962C7.37705 2.50105 7.69364 2.50124 7.88878 2.69661C8.08393 2.89199 8.08375 3.20857 7.88837 3.40372L3.64358 7.64351C3.54983 7.73737 3.49697 7.8648 3.49697 7.99746C3.49697 8.13022 3.5497 8.25753 3.64358 8.35141C3.73745 8.44528 3.86477 8.49802 3.99752 8.49802C4.13028 8.49802 4.2576 8.44528 4.35147 8.35141L8.95147 3.75641C9.23286 3.47491 9.39114 3.09299 9.39114 2.69496C9.39114 2.29684 9.23298 1.91503 8.95147 1.63351C8.66996 1.352 8.28814 1.19385 7.89002 1.19385Z" fill="#8E9491"/>
</svg>
