<svg width="14" height="16" viewBox="0 0 14 16" fill="none" xmlns="http://www.w3.org/2000/svg">
<path fill-rule="evenodd" clip-rule="evenodd" d="M4.33334 0.666748C4.70153 0.666748 5 0.965225 5 1.33341V2.00008H9V1.33341C9 0.965225 9.29848 0.666748 9.66667 0.666748C10.0349 0.666748 10.3333 0.965225 10.3333 1.33341V2.00008H11.6667C12.7712 2.00008 13.6667 2.89551 13.6667 4.00008V13.3334C13.6667 14.438 12.7712 15.3334 11.6667 15.3334H2.33334C1.22877 15.3334 0.333336 14.438 0.333336 13.3334V4.00008C0.333336 2.89551 1.22877 2.00008 2.33334 2.00008H3.66667V1.33341C3.66667 0.965225 3.96515 0.666748 4.33334 0.666748ZM3.66667 3.33341H2.33334C1.96515 3.33341 1.66667 3.63189 1.66667 4.00008V6.00008H12.3333V4.00008C12.3333 3.63189 12.0349 3.33341 11.6667 3.33341H10.3333V4.00008C10.3333 4.36827 10.0349 4.66675 9.66667 4.66675C9.29848 4.66675 9 4.36827 9 4.00008V3.33341H5V4.00008C5 4.36827 4.70153 4.66675 4.33334 4.66675C3.96515 4.66675 3.66667 4.36827 3.66667 4.00008V3.33341ZM12.3333 7.33341H1.66667V13.3334C1.66667 13.7016 1.96515 14.0001 2.33334 14.0001H11.6667C12.0349 14.0001 12.3333 13.7016 12.3333 13.3334V7.33341Z" fill="#565B59"/>
</svg>
