<svg width="16" height="16" viewBox="0 0 16 16" fill="none" xmlns="http://www.w3.org/2000/svg">
<path fill-rule="evenodd" clip-rule="evenodd" d="M0.976311 10.3096C1.60143 9.68444 2.44928 9.33325 3.33333 9.33325H8.66667C9.55072 9.33325 10.3986 9.68444 11.0237 10.3096C11.6488 10.9347 12 11.7825 12 12.6666V13.9999C12 14.3681 11.7015 14.6666 11.3333 14.6666C10.9651 14.6666 10.6667 14.3681 10.6667 13.9999V12.6666C10.6667 12.1362 10.456 11.6274 10.0809 11.2524C9.70581 10.8773 9.1971 10.6666 8.66667 10.6666H3.33333C2.8029 10.6666 2.29419 10.8773 1.91912 11.2524C1.54405 11.6274 1.33333 12.1362 1.33333 12.6666V13.9999C1.33333 14.3681 1.03486 14.6666 0.666667 14.6666C0.298477 14.6666 0 14.3681 0 13.9999V12.6666C0 11.7825 0.35119 10.9347 0.976311 10.3096Z" fill="#196542"/>
<path fill-rule="evenodd" clip-rule="evenodd" d="M6 2.66659C4.89543 2.66659 4 3.56202 4 4.66659C4 5.77115 4.89543 6.66659 6 6.66659C7.10457 6.66659 8 5.77115 8 4.66659C8 3.56202 7.10457 2.66659 6 2.66659ZM2.66667 4.66659C2.66667 2.82564 4.15905 1.33325 6 1.33325C7.84095 1.33325 9.33333 2.82564 9.33333 4.66659C9.33333 6.50753 7.84095 7.99992 6 7.99992C4.15905 7.99992 2.66667 6.50753 2.66667 4.66659Z" fill="#196542"/>
<path fill-rule="evenodd" clip-rule="evenodd" d="M12.6878 9.91992C12.7799 9.56342 13.1435 9.34904 13.5 9.44109C14.2151 9.62573 14.8486 10.0426 15.3011 10.6264C15.7536 11.2101 15.9994 11.9275 16 12.6661V13.9999C16 14.3681 15.7015 14.6666 15.3333 14.6666C14.9651 14.6666 14.6667 14.3681 14.6667 13.9999V12.6671V12.6671C14.6663 12.224 14.5188 11.7934 14.2474 11.4432C13.9759 11.093 13.5957 10.8429 13.1667 10.7321C12.8102 10.64 12.5958 10.2764 12.6878 9.91992Z" fill="#196542"/>
<path fill-rule="evenodd" clip-rule="evenodd" d="M10.0208 1.92123C10.1122 1.56454 10.4753 1.34943 10.832 1.44075C11.549 1.62434 12.1846 2.04134 12.6384 2.62601C13.0922 3.21068 13.3386 3.92978 13.3386 4.66992C13.3386 5.41006 13.0922 6.12915 12.6384 6.71383C12.1846 7.2985 11.549 7.7155 10.832 7.89908C10.4753 7.99041 10.1122 7.77529 10.0208 7.41861C9.92951 7.06193 10.1446 6.69874 10.5013 6.60742C10.9315 6.49727 11.3128 6.24707 11.5851 5.89626C11.8574 5.54546 12.0052 5.114 12.0052 4.66992C12.0052 4.22583 11.8574 3.79438 11.5851 3.44357C11.3128 3.09277 10.9315 2.84257 10.5013 2.73242C10.1446 2.64109 9.92951 2.27791 10.0208 1.92123Z" fill="#196542"/>
</svg>
