<svg width="128" height="100" viewBox="0 0 128 100" fill="none" xmlns="http://www.w3.org/2000/svg">
<g clip-path="url(#clip0_122_14654)">
<rect width="128" height="20" fill="#A6CFBC"/>
<rect width="128" height="80" transform="translate(0 20)" fill="#F1F2F2"/>
<rect x="8" y="28" width="34.6667" height="13" rx="2" fill="white"/>
<rect x="46.6665" y="28" width="34.6667" height="13" rx="2" fill="white"/>
<rect x="85.3335" y="28" width="34.6667" height="13" rx="2" fill="white"/>
<rect x="8" y="45" width="34.6667" height="13" rx="2" fill="white"/>
<rect x="46.6665" y="45" width="34.6667" height="13" rx="2" fill="white"/>
<rect x="85.3335" y="45" width="34.6667" height="13" rx="2" fill="white"/>
<rect x="8" y="62" width="34.6667" height="13" rx="2" fill="white"/>
<rect x="46.6665" y="62" width="34.6667" height="13" rx="2" fill="white"/>
<rect x="85.3335" y="62" width="34.6667" height="13" rx="2" fill="white"/>
<rect x="8" y="79" width="34.6667" height="13" rx="2" fill="white"/>
<rect x="46.6665" y="79" width="34.6667" height="13" rx="2" fill="white"/>
<rect x="85.3335" y="79" width="34.6667" height="13" rx="2" fill="white"/>
</g>
<defs>
<clipPath id="clip0_122_14654">
<rect width="128" height="100" rx="8" fill="white"/>
</clipPath>
</defs>
</svg>
