<svg width="12" height="12" viewBox="0 0 12 12" fill="none" xmlns="http://www.w3.org/2000/svg">
<path fill-rule="evenodd" clip-rule="evenodd" d="M0.666626 5.99999C0.666626 5.6318 0.965103 5.33332 1.33329 5.33332H10.6666C11.0348 5.33332 11.3333 5.6318 11.3333 5.99999C11.3333 6.36818 11.0348 6.66666 10.6666 6.66666H1.33329C0.965103 6.66666 0.666626 6.36818 0.666626 5.99999Z" fill="#565B59"/>
<path fill-rule="evenodd" clip-rule="evenodd" d="M5.52855 0.861919C5.7889 0.601569 6.21101 0.601569 6.47136 0.861919L11.138 5.52858C11.3984 5.78893 11.3984 6.21104 11.138 6.47139L6.47136 11.1381C6.21101 11.3984 5.7889 11.3984 5.52855 11.1381C5.26821 10.8777 5.26821 10.4556 5.52855 10.1953L9.72382 5.99999L5.52855 1.80473C5.26821 1.54438 5.26821 1.12227 5.52855 0.861919Z" fill="#565B59"/>
</svg>
