<svg width="14" height="14" viewBox="0 0 14 14" fill="none" xmlns="http://www.w3.org/2000/svg">
<path fill-rule="evenodd" clip-rule="evenodd" d="M0.333252 6.99992C0.333252 6.53968 0.706348 6.16658 1.16659 6.16658H12.8333C13.2935 6.16658 13.6666 6.53968 13.6666 6.99992C13.6666 7.46016 13.2935 7.83325 12.8333 7.83325H1.16659C0.706348 7.83325 0.333252 7.46016 0.333252 6.99992Z" fill="#565B59"/>
<path fill-rule="evenodd" clip-rule="evenodd" d="M7.58917 0.57733C7.91461 0.902767 7.91461 1.4304 7.58917 1.75584L2.3451 6.99992L7.58917 12.244C7.91461 12.5694 7.91461 13.0971 7.58917 13.4225C7.26374 13.7479 6.7361 13.7479 6.41066 13.4225L0.57733 7.58917C0.251893 7.26374 0.251893 6.7361 0.57733 6.41066L6.41066 0.57733C6.7361 0.251893 7.26374 0.251893 7.58917 0.57733Z" fill="#565B59"/>
</svg>
