<svg width="40" height="40" viewBox="0 0 40 40" fill="none" xmlns="http://www.w3.org/2000/svg">
<path fill-rule="evenodd" clip-rule="evenodd" d="M15.8751 12.5418C16.9691 11.4478 18.4528 10.8333 19.9999 10.8333C21.547 10.8333 23.0307 11.4478 24.1247 12.5418C25.2187 13.6358 25.8332 15.1195 25.8332 16.6666C25.8332 19.4605 26.4308 21.1954 26.9815 22.205C27.258 22.712 27.5272 23.0445 27.7142 23.2419C27.808 23.3408 27.8816 23.4064 27.926 23.4434C27.9482 23.4619 27.963 23.4732 27.9694 23.478C27.9704 23.4787 27.9712 23.4793 27.9718 23.4798C28.2706 23.685 28.4028 24.0603 28.2975 24.4081C28.1911 24.7595 27.8671 24.9999 27.4999 24.9999H12.4999C12.1327 24.9999 11.8087 24.7595 11.7023 24.4081C11.597 24.0603 11.7292 23.685 12.028 23.4798C12.0286 23.4793 12.0294 23.4787 12.0304 23.478C12.0368 23.4732 12.0517 23.4619 12.0738 23.4434C12.1182 23.4064 12.1918 23.3408 12.2856 23.2419C12.4726 23.0445 12.7418 22.712 13.0183 22.205C13.569 21.1954 14.1666 19.4605 14.1666 16.6666C14.1666 15.1195 14.7812 13.6358 15.8751 12.5418ZM14.291 23.3333H25.7088C25.6454 23.2294 25.5817 23.1194 25.5183 23.0031C24.819 21.7211 24.1666 19.706 24.1666 16.6666C24.1666 15.5615 23.7276 14.5017 22.9462 13.7203C22.1648 12.9389 21.105 12.4999 19.9999 12.4999C18.8948 12.4999 17.835 12.9389 17.0536 13.7203C16.2722 14.5017 15.8332 15.5615 15.8332 16.6666C15.8332 19.706 15.1808 21.7211 14.4815 23.0031C14.4181 23.1194 14.3544 23.2294 14.291 23.3333Z" fill="#565B59"/>
<path fill-rule="evenodd" clip-rule="evenodd" d="M18.1401 26.7791C18.5382 26.5481 19.0481 26.6837 19.2791 27.0818C19.3523 27.2081 19.4575 27.3129 19.584 27.3857C19.7105 27.4586 19.8539 27.497 19.9999 27.497C20.1459 27.497 20.2893 27.4586 20.4158 27.3857C20.5423 27.3129 20.6475 27.2081 20.7207 27.0818C20.9517 26.6837 21.4616 26.5481 21.8597 26.7791C22.2578 27.01 22.3933 27.52 22.1624 27.9181C21.9426 28.2969 21.6272 28.6114 21.2477 28.83C20.8682 29.0486 20.4379 29.1636 19.9999 29.1636C19.5619 29.1636 19.1316 29.0486 18.7521 28.83C18.3726 28.6114 18.0572 28.2969 17.8374 27.9181C17.6065 27.52 17.742 27.01 18.1401 26.7791Z" fill="#565B59"/>
</svg>
