<svg width="16" height="16" viewBox="0 0 16 16" fill="none" xmlns="http://www.w3.org/2000/svg">
<path fill-rule="evenodd" clip-rule="evenodd" d="M1.91904 1.91912C2.29411 1.54405 2.80282 1.33333 3.33325 1.33333H12.6666C13.197 1.33333 13.7057 1.54405 14.0808 1.91912C14.4559 2.29419 14.6666 2.8029 14.6666 3.33333V12.6667C14.6666 13.1971 14.4559 13.7058 14.0808 14.0809C13.7057 14.456 13.197 14.6667 12.6666 14.6667H3.33325C2.80282 14.6667 2.29411 14.456 1.91904 14.0809C1.54397 13.7058 1.33325 13.1971 1.33325 12.6667V3.33333C1.33325 2.8029 1.54397 2.29419 1.91904 1.91912ZM3.33325 2.66667C3.15644 2.66667 2.98687 2.7369 2.86185 2.86193C2.73682 2.98695 2.66659 3.15652 2.66659 3.33333V12.6667C2.66659 12.8435 2.73682 13.013 2.86185 13.1381C2.98687 13.2631 3.15644 13.3333 3.33325 13.3333H7.33325V2.66667H3.33325ZM8.66659 2.66667V13.3333H12.6666C12.8434 13.3333 13.013 13.2631 13.138 13.1381C13.263 13.013 13.3333 12.8435 13.3333 12.6667V3.33333C13.3333 3.15652 13.263 2.98695 13.138 2.86193C13.013 2.7369 12.8434 2.66667 12.6666 2.66667H8.66659Z" fill="#218758"/>
</svg>
