<svg width="14" height="10" viewBox="0 0 14 10" fill="none" xmlns="http://www.w3.org/2000/svg">
<path fill-rule="evenodd" clip-rule="evenodd" d="M0.333252 0.999919C0.333252 0.631729 0.631729 0.333252 0.999919 0.333252H12.9999C13.3681 0.333252 13.6666 0.631729 13.6666 0.999919C13.6666 1.36811 13.3681 1.66659 12.9999 1.66659H0.999919C0.631729 1.66659 0.333252 1.36811 0.333252 0.999919ZM2.33325 4.99992C2.33325 4.63173 2.63173 4.33325 2.99992 4.33325H10.9999C11.3681 4.33325 11.6666 4.63173 11.6666 4.99992C11.6666 5.36811 11.3681 5.66659 10.9999 5.66659H2.99992C2.63173 5.66659 2.33325 5.36811 2.33325 4.99992ZM4.33325 8.99992C4.33325 8.63173 4.63173 8.33325 4.99992 8.33325H8.99992C9.36811 8.33325 9.66659 8.63173 9.66659 8.99992C9.66659 9.36811 9.36811 9.66659 8.99992 9.66659H4.99992C4.63173 9.66659 4.33325 9.36811 4.33325 8.99992Z" fill="#565B59"/>
</svg>
