<svg width="21" height="20" viewBox="0 0 21 20" fill="none" xmlns="http://www.w3.org/2000/svg">
<path d="M18.6712 8.368H18V8.33342H10.5V11.6667H15.2095C14.5225 13.6072 12.6762 15.0001 10.5 15.0001C7.73871 15.0001 5.49996 12.7613 5.49996 10.0001C5.49996 7.23883 7.73871 5.00008 10.5 5.00008C11.7745 5.00008 12.9341 5.48091 13.817 6.26633L16.1741 3.90925C14.6858 2.52216 12.695 1.66675 10.5 1.66675C5.89788 1.66675 2.16663 5.398 2.16663 10.0001C2.16663 14.6022 5.89788 18.3334 10.5 18.3334C15.102 18.3334 18.8333 14.6022 18.8333 10.0001C18.8333 9.44133 18.7758 8.89592 18.6712 8.368Z" fill="#FFC107"/>
<path d="M3.12744 6.12133L5.86536 8.12925C6.60619 6.29508 8.40036 5.00008 10.4999 5.00008C11.7745 5.00008 12.9341 5.48091 13.817 6.26633L16.1741 3.90925C14.6858 2.52216 12.6949 1.66675 10.4999 1.66675C7.29911 1.66675 4.52327 3.47383 3.12744 6.12133Z" fill="#FF3D00"/>
<path d="M10.5 18.3334C12.6525 18.3334 14.6084 17.5096 16.0871 16.17L13.508 13.9875C12.6713 14.6213 11.6313 15 10.5 15C8.33255 15 6.49213 13.618 5.7988 11.6892L3.0813 13.783C4.46047 16.4817 7.2613 18.3334 10.5 18.3334Z" fill="#4CAF50"/>
<path d="M18.6713 8.36784H18V8.33325H10.5V11.6666H15.2096C14.8796 12.5987 14.28 13.4024 13.5067 13.9878L13.5079 13.987L16.0871 16.1695C15.9046 16.3353 18.8333 14.1666 18.8333 9.99992C18.8333 9.44117 18.7758 8.89575 18.6713 8.36784Z" fill="#1976D2"/>
</svg>
