<svg width="14" height="14" viewBox="0 0 14 14" fill="none" xmlns="http://www.w3.org/2000/svg">
<path fill-rule="evenodd" clip-rule="evenodd" d="M6.3335 1.66659C3.75617 1.66659 1.66683 3.75592 1.66683 6.33325C1.66683 8.91058 3.75617 10.9999 6.3335 10.9999C8.91083 10.9999 11.0002 8.91058 11.0002 6.33325C11.0002 3.75592 8.91083 1.66659 6.3335 1.66659ZM0.333496 6.33325C0.333496 3.01954 3.01979 0.333252 6.3335 0.333252C9.64721 0.333252 12.3335 3.01954 12.3335 6.33325C12.3335 9.64696 9.64721 12.3333 6.3335 12.3333C3.01979 12.3333 0.333496 9.64696 0.333496 6.33325Z" fill="#565B59"/>
<path fill-rule="evenodd" clip-rule="evenodd" d="M9.62876 9.62851C9.88911 9.36817 10.3112 9.36817 10.5716 9.62851L13.4716 12.5285C13.7319 12.7889 13.7319 13.211 13.4716 13.4713C13.2112 13.7317 12.7891 13.7317 12.5288 13.4713L9.62876 10.5713C9.36841 10.311 9.36841 9.88886 9.62876 9.62851Z" fill="#565B59"/>
</svg>
