<svg width="40" height="40" viewBox="0 0 40 40" fill="none" xmlns="http://www.w3.org/2000/svg">
<g clip-path="url(#clip0_236_3696)">
<path fill-rule="evenodd" clip-rule="evenodd" d="M20 18.3333C19.0795 18.3333 18.3333 19.0795 18.3333 20C18.3333 20.9205 19.0795 21.6667 20 21.6667C20.9205 21.6667 21.6667 20.9205 21.6667 20C21.6667 19.0795 20.9205 18.3333 20 18.3333ZM16.6667 20C16.6667 18.1591 18.1591 16.6667 20 16.6667C21.8409 16.6667 23.3333 18.1591 23.3333 20C23.3333 21.8409 21.8409 23.3333 20 23.3333C18.1591 23.3333 16.6667 21.8409 16.6667 20Z" fill="#565B59"/>
<path fill-rule="evenodd" clip-rule="evenodd" d="M20 11.6667C19.779 11.6667 19.567 11.7545 19.4107 11.9107C19.2545 12.067 19.1667 12.279 19.1667 12.5V12.645C19.1649 13.0757 19.0373 13.4964 18.7995 13.8555C18.5617 14.2146 18.2241 14.4963 17.8283 14.6659C17.7578 14.6961 17.6837 14.7164 17.608 14.7263C17.2483 14.8523 16.8611 14.8833 16.4842 14.815C16.05 14.7362 15.6494 14.5293 15.3339 14.2207L15.3274 14.2143L15.2774 14.1643C15.2 14.0868 15.1078 14.025 15.0066 13.983C14.9055 13.9411 14.797 13.9195 14.6875 13.9195C14.578 13.9195 14.4695 13.9411 14.3684 13.983C14.2672 14.025 14.1753 14.0864 14.0979 14.1639L14.0973 14.1646C14.0198 14.242 13.9583 14.3339 13.9164 14.435C13.8744 14.5362 13.8529 14.6447 13.8529 14.7542C13.8529 14.8637 13.8744 14.9721 13.9164 15.0733C13.9583 15.1744 14.0198 15.2664 14.0973 15.3437L14.1541 15.4006C14.4626 15.716 14.6696 16.1167 14.7483 16.5508C14.8255 16.9764 14.7759 17.415 14.6062 17.8123C14.4516 18.2178 14.1808 18.5689 13.8275 18.8216C13.4671 19.0793 13.0375 19.2227 12.5945 19.2331L12.575 19.2333H12.5C12.279 19.2333 12.067 19.3211 11.9107 19.4774C11.7545 19.6337 11.6667 19.8457 11.6667 20.0667C11.6667 20.2877 11.7545 20.4996 11.9107 20.6559C12.067 20.8122 12.279 20.9 12.5 20.9H12.645C13.0757 20.9017 13.4964 21.0293 13.8555 21.2671C14.2133 21.5041 14.4943 21.8402 14.6642 22.2343C14.8409 22.6369 14.8934 23.0831 14.815 23.5158C14.7362 23.95 14.5293 24.3506 14.2207 24.6661L14.2143 24.6726L14.1643 24.7226C14.0868 24.8 14.025 24.8922 13.983 24.9934C13.9411 25.0945 13.9195 25.203 13.9195 25.3125C13.9195 25.422 13.9411 25.5305 13.983 25.6316C14.025 25.7328 14.0864 25.8247 14.1639 25.9021L14.1646 25.9027C14.242 25.9802 14.3339 26.0417 14.435 26.0836C14.5362 26.1256 14.6447 26.1471 14.7542 26.1471C14.8637 26.1471 14.9721 26.1256 15.0733 26.0836C15.1745 26.0417 15.2664 25.9802 15.3437 25.9027L15.4006 25.8459C15.716 25.5374 16.1167 25.3304 16.5508 25.2517C16.9764 25.1745 17.415 25.2241 17.8123 25.3938C18.2178 25.5484 18.5689 25.8192 18.8216 26.1725C19.0793 26.5329 19.2227 26.9625 19.2331 27.4055L19.2333 27.425V27.5C19.2333 27.721 19.3211 27.933 19.4774 28.0893C19.6337 28.2455 19.8457 28.3333 20.0667 28.3333C20.2877 28.3333 20.4996 28.2455 20.6559 28.0893C20.8122 27.933 20.9 27.721 20.9 27.5V27.3583L20.9 27.355C20.9017 26.9243 21.0293 26.5036 21.2671 26.1445C21.5041 25.7866 21.8402 25.5056 22.2344 25.3358C22.637 25.1591 23.0832 25.1066 23.5158 25.185C23.95 25.2638 24.3506 25.4707 24.6661 25.7793L24.6726 25.7857L24.7226 25.8357C24.8 25.9132 24.8922 25.975 24.9934 26.017C25.0945 26.0589 25.203 26.0805 25.3125 26.0805C25.422 26.0805 25.5305 26.0589 25.6316 26.017C25.7328 25.975 25.8247 25.9136 25.9021 25.8361L25.9027 25.8354C25.9802 25.758 26.0417 25.6661 26.0836 25.5649C26.1256 25.4638 26.1471 25.3553 26.1471 25.2458C26.1471 25.1363 26.1256 25.0279 26.0836 24.9267C26.0417 24.8255 25.9802 24.7336 25.9027 24.6562L25.8459 24.5994C25.5374 24.284 25.3304 23.8833 25.2517 23.4492C25.1732 23.0165 25.2258 22.5703 25.4024 22.1677C25.5723 21.7736 25.8533 21.4375 26.2112 21.2005C26.5702 20.9627 26.991 20.8351 27.4217 20.8333L27.425 20.8333L27.5 20.8333C27.721 20.8333 27.933 20.7455 28.0893 20.5893C28.2455 20.433 28.3333 20.221 28.3333 20C28.3333 19.779 28.2455 19.567 28.0893 19.4107C27.933 19.2545 27.721 19.1667 27.5 19.1667H27.3583L27.355 19.1667C26.9243 19.1649 26.5036 19.0373 26.1445 18.7995C25.7854 18.5617 25.5037 18.2241 25.334 17.8283C25.3038 17.7578 25.2836 17.6837 25.2737 17.608C25.1477 17.2483 25.1167 16.8611 25.185 16.4842C25.2638 16.05 25.4707 15.6494 25.7793 15.3339L25.7857 15.3274L25.8357 15.2774C25.9132 15.2 25.975 15.1078 26.017 15.0066C26.0589 14.9055 26.0805 14.797 26.0805 14.6875C26.0805 14.578 26.0589 14.4695 26.017 14.3684C25.975 14.2672 25.9136 14.1753 25.8361 14.0979L25.8354 14.0973C25.758 14.0198 25.6661 13.9583 25.5649 13.9164C25.4638 13.8744 25.3553 13.8529 25.2458 13.8529C25.1363 13.8529 25.0279 13.8744 24.9267 13.9164C24.8256 13.9583 24.7336 14.0198 24.6562 14.0973L24.5994 14.1541C24.284 14.4626 23.8833 14.6696 23.4492 14.7483C23.0165 14.8268 22.5702 14.7742 22.1676 14.5975C21.7735 14.4277 21.4374 14.1467 21.2005 13.7888C20.9627 13.4298 20.8351 13.009 20.8333 12.5783L20.8333 12.575V12.5C20.8333 12.279 20.7455 12.067 20.5893 11.9107C20.433 11.7545 20.221 11.6667 20 11.6667ZM18.2322 10.7322C18.7011 10.2634 19.337 10 20 10C20.663 10 21.2989 10.2634 21.7678 10.7322C22.2366 11.2011 22.5 11.837 22.5 12.5V12.5729C22.5007 12.6781 22.5319 12.7809 22.59 12.8686C22.6484 12.9567 22.7312 13.0258 22.8283 13.0674L22.8365 13.0709C22.9355 13.1146 23.0453 13.1277 23.1518 13.1084C23.2571 13.0893 23.3544 13.0394 23.4314 12.9651L23.4771 12.9194C23.7093 12.687 23.985 12.5026 24.2885 12.3768C24.592 12.2509 24.9173 12.1862 25.2458 12.1862C25.5744 12.1862 25.8997 12.2509 26.2032 12.3768C26.5067 12.5026 26.7824 12.687 27.0146 12.9194C27.2467 13.1515 27.4309 13.4269 27.5566 13.7301C27.6824 14.0336 27.7471 14.359 27.7471 14.6875C27.7471 15.016 27.6824 15.3414 27.5566 15.6449C27.4308 15.9482 27.2465 16.2238 27.0143 16.4559V16.4559L26.9683 16.5019C26.8939 16.5789 26.8441 16.6762 26.825 16.7815C26.8056 16.888 26.8187 16.9978 26.8624 17.0969C26.8859 17.1502 26.9038 17.2058 26.9156 17.2626C26.9551 17.3207 27.0056 17.3708 27.0647 17.41C27.1525 17.4681 27.2552 17.4993 27.3604 17.5H27.5C28.163 17.5 28.7989 17.7634 29.2678 18.2322C29.7366 18.7011 30 19.337 30 20C30 20.663 29.7366 21.2989 29.2678 21.7678C28.7989 22.2366 28.163 22.5 27.5 22.5H27.4271C27.3219 22.5007 27.2191 22.5319 27.1314 22.59C27.0433 22.6484 26.9742 22.7312 26.9326 22.8283L26.9291 22.8365C26.8854 22.9355 26.8723 23.0453 26.8916 23.1518C26.9107 23.2571 26.9606 23.3544 27.0349 23.4314L27.0806 23.4771V23.4771C27.3129 23.7092 27.4975 23.9851 27.6232 24.2885C27.7491 24.592 27.8138 24.9173 27.8138 25.2458C27.8138 25.5744 27.7491 25.8997 27.6232 26.2032C27.4974 26.5067 27.313 26.7824 27.0806 27.0146L26.4917 26.425L27.0813 27.0139C26.8491 27.2464 26.5733 27.4308 26.2699 27.5566C25.9664 27.6824 25.641 27.7471 25.3125 27.7471C24.984 27.7471 24.6586 27.6824 24.3551 27.5566C24.0518 27.4308 23.7762 27.2465 23.5441 27.0143V27.0143L23.4981 26.9682C23.4211 26.8939 23.3238 26.8441 23.2185 26.825C23.112 26.8056 23.0022 26.8187 22.9031 26.8624L22.895 26.866C22.7979 26.9076 22.715 26.9767 22.6567 27.0647C22.5986 27.1525 22.5673 27.2552 22.5667 27.3604V27.5C22.5667 28.163 22.3033 28.7989 21.8344 29.2678C21.3656 29.7366 20.7297 30 20.0667 30C19.4036 30 18.7677 29.7366 18.2989 29.2678C17.8301 28.7989 17.5667 28.163 17.5667 27.5V27.437C17.5627 27.331 17.5277 27.2284 17.466 27.142C17.4027 27.0536 17.3144 26.9863 17.2123 26.9488C17.1959 26.9427 17.1796 26.9361 17.1635 26.9291C17.0645 26.8854 16.9547 26.8723 16.8482 26.8916C16.7428 26.9107 16.6456 26.9606 16.5686 27.0349L16.5229 27.0806V27.0806C16.2908 27.3129 16.0149 27.4975 15.7115 27.6232C15.408 27.7491 15.0827 27.8138 14.7542 27.8138C14.4256 27.8138 14.1003 27.7491 13.7968 27.6232C13.4936 27.4976 13.2181 27.3134 12.9861 27.0813C12.7536 26.8491 12.5692 26.5733 12.4434 26.2699C12.3176 25.9664 12.2529 25.641 12.2529 25.3125C12.2529 24.984 12.3176 24.6586 12.4434 24.3551C12.5692 24.0517 12.7536 23.7759 12.9861 23.5437L13.0318 23.4981C13.1061 23.4211 13.1559 23.3238 13.175 23.2185C13.1943 23.112 13.1813 23.0022 13.1376 22.9031L13.134 22.895C13.0924 22.7979 13.0233 22.715 12.9353 22.6567C12.8475 22.5986 12.7448 22.5673 12.6396 22.5667H12.5C11.837 22.5667 11.2011 22.3033 10.7322 21.8344C10.2634 21.3656 10 20.7297 10 20.0667C10 19.4036 10.2634 18.7677 10.7322 18.2989C11.2011 17.8301 11.837 17.5667 12.5 17.5667H12.563C12.669 17.5627 12.7716 17.5277 12.858 17.466C12.9464 17.4027 13.0137 17.3144 13.0512 17.2123C13.0573 17.1959 13.0639 17.1796 13.0709 17.1635C13.1146 17.0645 13.1277 16.9547 13.1084 16.8482C13.0893 16.7429 13.0394 16.6456 12.9651 16.5686L12.9194 16.5229C12.687 16.2907 12.5026 16.015 12.3768 15.7115C12.2509 15.408 12.1862 15.0827 12.1862 14.7542C12.1862 14.4256 12.2509 14.1003 12.3768 13.7968C12.5025 13.4935 12.6868 13.2179 12.9191 12.9857C13.1512 12.7535 13.4268 12.5692 13.7301 12.4434C14.0336 12.3176 14.359 12.2529 14.6875 12.2529C15.016 12.2529 15.3414 12.3176 15.6449 12.4434C15.9483 12.5692 16.2241 12.7536 16.4562 12.9861L16.5019 13.0317C16.5789 13.1061 16.6762 13.1559 16.7815 13.175C16.888 13.1943 16.9978 13.1813 17.0969 13.1376C17.1502 13.1141 17.2058 13.0962 17.2626 13.0844C17.3207 13.0449 17.3708 12.9944 17.41 12.9353C17.4681 12.8475 17.4993 12.7448 17.5 12.6396V12.5C17.5 11.837 17.7634 11.2011 18.2322 10.7322Z" fill="#565B59"/>
</g>
<defs>
<clipPath id="clip0_236_3696">
<rect width="20" height="20" fill="white" transform="translate(10 10)"/>
</clipPath>
</defs>
</svg>
