<svg width="16" height="17" viewBox="0 0 16 17" fill="none" xmlns="http://www.w3.org/2000/svg">
<path fill-rule="evenodd" clip-rule="evenodd" d="M1.33301 4.50008C1.33301 4.13189 1.63148 3.83341 1.99967 3.83341H13.9997C14.3679 3.83341 14.6663 4.13189 14.6663 4.50008C14.6663 4.86827 14.3679 5.16675 13.9997 5.16675H1.99967C1.63148 5.16675 1.33301 4.86827 1.33301 4.50008Z" fill="#8E9491"/>
<path fill-rule="evenodd" clip-rule="evenodd" d="M6.66634 2.50008C6.48953 2.50008 6.31996 2.57032 6.19494 2.69534C6.06991 2.82037 5.99967 2.98994 5.99967 3.16675V4.50008C5.99967 4.86827 5.7012 5.16675 5.33301 5.16675C4.96482 5.16675 4.66634 4.86827 4.66634 4.50008V3.16675C4.66634 2.63631 4.87706 2.12761 5.25213 1.75253C5.6272 1.37746 6.13591 1.16675 6.66634 1.16675H9.33301C9.86344 1.16675 10.3721 1.37746 10.7472 1.75253C11.1223 2.12761 11.333 2.63631 11.333 3.16675V4.50008C11.333 4.86827 11.0345 5.16675 10.6663 5.16675C10.2982 5.16675 9.99967 4.86827 9.99967 4.50008V3.16675C9.99967 2.98994 9.92944 2.82037 9.80441 2.69534C9.67939 2.57032 9.50982 2.50008 9.33301 2.50008H6.66634ZM3.33301 3.83341C3.7012 3.83341 3.99967 4.13189 3.99967 4.50008V13.8334C3.99967 14.0102 4.06991 14.1798 4.19494 14.3048C4.31996 14.4298 4.48953 14.5001 4.66634 14.5001H11.333C11.5098 14.5001 11.6794 14.4298 11.8044 14.3048C11.9294 14.1798 11.9997 14.0102 11.9997 13.8334V4.50008C11.9997 4.13189 12.2982 3.83341 12.6663 3.83341C13.0345 3.83341 13.333 4.13189 13.333 4.50008V13.8334C13.333 14.3638 13.1223 14.8726 12.7472 15.2476C12.3721 15.6227 11.8634 15.8334 11.333 15.8334H4.66634C4.13591 15.8334 3.6272 15.6227 3.25213 15.2476C2.87705 14.8726 2.66634 14.3638 2.66634 13.8334V4.50008C2.66634 4.13189 2.96482 3.83341 3.33301 3.83341Z" fill="#8E9491"/>
<path fill-rule="evenodd" clip-rule="evenodd" d="M6.66634 7.16675C7.03453 7.16675 7.33301 7.46522 7.33301 7.83341V11.8334C7.33301 12.2016 7.03453 12.5001 6.66634 12.5001C6.29815 12.5001 5.99967 12.2016 5.99967 11.8334V7.83341C5.99967 7.46522 6.29815 7.16675 6.66634 7.16675Z" fill="#8E9491"/>
<path fill-rule="evenodd" clip-rule="evenodd" d="M9.33301 7.16675C9.7012 7.16675 9.99967 7.46522 9.99967 7.83341V11.8334C9.99967 12.2016 9.7012 12.5001 9.33301 12.5001C8.96482 12.5001 8.66634 12.2016 8.66634 11.8334V7.83341C8.66634 7.46522 8.96482 7.16675 9.33301 7.16675Z" fill="#8E9491"/>
</svg>
